<?xml version="1.0" standalone="no"?>
<!DOCTYPE svg PUBLIC "-//W3C//DTD SVG 1.1//EN" "http://www.w3.org/Graphics/SVG/1.1/DTD/svg11.dtd" >
<svg xmlns="http://www.w3.org/2000/svg" xmlns:xlink="http://www.w3.org/1999/xlink" version="1.1">
<metadata></metadata>
<defs>
<font id="sap-iconsregular" horiz-adv-x="2040" >
<font-face units-per-em="2048" ascent="1920" descent="-128" />
<missing-glyph horiz-adv-x="1024" />
<glyph horiz-adv-x="0" />
<glyph horiz-adv-x="0" />
<glyph unicode=" "  horiz-adv-x="1024" />
<glyph unicode="&#x09;" horiz-adv-x="1024" />
<glyph unicode="&#xa0;" horiz-adv-x="1024" />
<glyph unicode="&#x25fc;" horiz-adv-x="2000" d="M0 0v0v0v0v0z" />
<glyph unicode="&#xe000;" horiz-adv-x="2080" d="M1220 1096h384v-400h-384v-384h-400v384h-384v400h384v384h400v-384zM2040 1920v-2044h-2040v2044h2040zM1620 296q244 244 244 604q0 172 -68 326t-182 268t-268 182t-326 68q-176 0 -330 -66t-268 -182t-180 -270t-66 -326q0 -176 66 -330t180 -268t268 -180t330 -66 q352 0 600 240z" />
<glyph unicode="&#xe001;" horiz-adv-x="2048" d="M1280 1920h768v-128h-768v128zM1280 1664h768v-128h-768v128zM1280 1408h768v-128h-768v128zM1280 1152h768v-128h-768v128zM1072 -128h-1068v472q0 124 86 210t206 86h148q-124 24 -210 126t-86 274q0 72 28 140t78 118t118 80t168 30q92 0 158 -30t116 -80t78 -118 t28 -140q0 -176 -82 -276t-210 -124h148q128 0 212 -86t84 -210v-472z" />
<glyph unicode="&#xe002;" horiz-adv-x="1992" d="M460 1920q104 0 194 -42t158 -112t108 -164t40 -194q0 -104 -38 -196t-106 -162t-160 -110t-196 -40q-148 0 -268 78t-180 210h376q60 0 102 44t42 104v144q0 60 -42 104t-102 44h-376q60 132 180 212t268 80zM1936 232q40 -52 40 -104q0 -56 -40 -104l-104 -104 q-44 -40 -104 -40q-64 0 -100 40l-864 912l276 256zM1748 36q36 0 54 22t18 50t-18 50t-54 22t-52 -22t-16 -50t16 -50t52 -22z" />
<glyph unicode="&#xe003;" horiz-adv-x="2048" d="M912 16h68v-136h-980v136h68v1764h844v-1764zM184 968h612v680h-612v-680zM772 844q-20 20 -48 20t-48 -18t-20 -46t20 -48t48 -20t48 20t20 48t-20 44zM2040 832v-136h-980v136h68v948h844v-948h68zM1584 968h272v404h-272v-404zM1584 1644v-204h272v204h-272zM1248 968 h272v676h-272v-676z" />
<glyph unicode="&#xe004;" horiz-adv-x="2048" d="M2036 1920v-2036h-2036v2036h2036zM1888 1772h-1740v-1740h1740v1740zM604 344q-168 172 -168 412t170 418t412 178t416 -178t170 -418t-174 -410t-412 -170t-414 168zM708 1064q-128 -128 -128 -308t130 -308t308 -128t308 128t130 308t-130 314t-308 134t-310 -140z M1772 1564q0 -44 -32 -76t-76 -32t-76 32t-32 76t32 76t76 32t76 -32t32 -76zM1276 1456q-44 0 -76 32t-32 76t32 76t78 32t78 -32t32 -76t-32 -76t-80 -32z" />
<glyph unicode="&#xe005;" horiz-adv-x="2048" d="M764 532q44 0 90 -24t84 -62t62 -92t24 -114v-368h-1024v368q0 60 24 114t62 92t84 62t90 24h180q-128 28 -210 128t-82 232q0 152 106 258t258 106t258 -106t106 -258q0 -132 -82 -232t-214 -128h184zM1004 748q20 88 20 148q0 36 -6 72t-14 76h276v144l440 -292 l-440 -292v144h-276zM2048 1920v-1792h-876v76q0 20 -2 36t-6 36h736v1496h-1024v-516q-32 32 -68 58t-76 46v560h1316z" />
<glyph unicode="&#xe006;" horiz-adv-x="2048" d="M0 1148h1280v-896h-1280v896zM1404 1020h132v-640h-132v640zM2048 1388v-1392l-384 256v880zM256 1404h768v-128h-768v128z" />
<glyph unicode="&#xe007;" horiz-adv-x="1704" d="M1648 268q36 -44 36 -116q0 -164 -188 -200v-72h-64v72q-84 8 -128 54t-64 134l116 12q8 -36 22 -56t54 -40v180q-104 32 -138 82t-34 106q0 64 44 118t128 62v44h64v-44q80 -12 120 -50t52 -102l-112 -16q-8 48 -60 72v-168q116 -32 152 -72zM1432 508q-44 -16 -54 -38 t-10 -42t6 -34t58 -34v148zM1560 80q20 28 20 56q0 24 -14 44t-70 40v-172q44 12 64 32zM540 1040l-544 -276v148l524 524zM1452 764l-548 276l24 396l524 -524v-148zM868 1640q0 -8 -64 -1108l136 -200v-144l-220 144l-216 -144v144l132 200q-60 1092 -60 1108 q0 100 44 196t102 96t102 -96t44 -196z" />
<glyph unicode="&#xe008;" horiz-adv-x="1240" d="M984 740q156 -156 156 -372q0 -220 -156 -374t-376 -154t-376 154t-156 374q0 216 152 372v80h-228v156h228v148h-228v152h228v152h-228v152h228q0 156 110 268t268 112t268 -112t110 -268v-840zM228 368q0 -152 110 -264t268 -112t268 112t110 264q0 192 -148 304v908 q0 96 -66 160t-162 64t-162 -64t-66 -160v-908q-152 -112 -152 -304zM684 584q64 -24 108 -82t44 -134q0 -92 -66 -158t-162 -66t-162 66t-66 158q0 76 40 134t108 82v616h156v-616z" />
<glyph unicode="&#xe009;" horiz-adv-x="1664" d="M340 1048l72 72l76 -72l204 220l76 -76l-280 -292zM484 420l204 220l76 -72l-280 -288l-148 140l72 72zM936 640h472v-128h-472v128zM936 384h472v-128h-472v128zM936 1280h472v-128h-472v128zM936 1024h472v-128h-472v128zM1664 1792v-1920h-1660v1920h380v-128h-256 v-1664h1408v1664h-256v128h384zM864 1624h-352v168h100q0 92 64 156t156 64t156 -64t64 -156h100v-168h-288zM836 1884q-36 0 -54 -22t-18 -50t18 -50t54 -22t54 22t18 50t-18 50t-54 22z" />
<glyph unicode="&#xe00a;" horiz-adv-x="2180" d="M2120 1696v-712l-616 360l228 128q-124 144 -298 226t-374 82q-224 0 -410 -96t-310 -272l-152 88q144 212 372 336t500 124q248 0 464 -106t364 -294zM1060 20q240 0 442 118t322 314l148 -88q-136 -240 -382 -382t-530 -142q-248 0 -464 106t-364 294l-232 -136v712 l616 -360l-228 -128q124 -144 298 -226t374 -82z" />
<glyph unicode="&#xe00b;" horiz-adv-x="1796" d="M728 536l-148 -144l148 -144l-72 -72l-144 148l-148 -148l-72 72l148 144l-148 144l72 72l148 -148l144 148zM1792 1920v-2048h-1788v2048h1788zM1660 1792h-1532v-1796h1532v1796zM440 748l-148 148l72 72l76 -68l216 220l72 -76zM876 1024h584v-132h-584v132zM872 512 h588v-128h-588v128zM876 1536h584v-136h-584v136zM440 1260l-148 140l72 76l76 -68l216 220l72 -76z" />
<glyph unicode="&#xe00c;" horiz-adv-x="2112" d="M1212 1192q84 24 184 20l64 204l248 -80l-64 -200q84 -60 140 -128l184 88l124 -220l-184 -100q20 -92 16 -192l192 -60l-76 -244l-196 72q-44 -88 -128 -148l92 -184l-228 -120l-92 180q-104 -20 -184 -20l-76 -192l-240 84l68 188q-92 64 -160 128l-176 -92l-120 224 l184 96q-28 100 -16 184l-204 80l88 244l196 -72q60 100 128 152l-84 180l212 120zM1576 760q-48 92 -148 124t-192 -16q-100 -52 -138 -146t18 -198q40 -88 144 -126t204 14q100 44 124 146t-12 202zM732 1396q-4 -40 -32 -76l116 -112l-108 -104l-108 112q-20 -12 -40 -20 t-40 -12v-160h-144v160q-44 8 -80 32l-112 -112l-100 104l108 112q-20 36 -32 76h-156v148h156q12 40 32 76l-108 112l100 104l112 -112q36 20 80 32v160h144v-160q20 -4 40 -12t40 -20l108 112l108 -104l-116 -112q24 -36 32 -76h160v-148h-160zM448 1340q24 0 50 8t44 26 t28 44t10 50q0 28 -10 52t-28 42t-44 28t-50 10q-28 0 -52 -10t-42 -28t-26 -42t-8 -52q0 -24 8 -50t26 -44t42 -26t52 -8z" />
<glyph unicode="&#xe00d;" horiz-adv-x="2048" d="M1160 524q-184 -136 -412 -136q-152 4 -290 68t-240 168t-162 242t-60 290q0 156 60 294t166 244t244 166t294 60t294 -62t240 -166t160 -242t58 -286q0 -228 -124 -412l112 -116l-228 -228zM1348 1156q0 120 -46 228t-128 190t-190 130t-228 48q-116 0 -220 -44 t-184 -124t-128 -190t-48 -242q0 -124 46 -234t126 -190t186 -128t222 -48q124 0 232 52t188 136t126 192t46 224zM2032 104l-224 -224l-476 468l228 228z" />
<glyph unicode="&#xe00e;" horiz-adv-x="1772" d="M1688 876q44 -56 44 -132q0 -92 -50 -148t-170 -76v-84h-72v80q-184 24 -216 212l128 16q8 -40 24 -62t64 -50v208q-116 32 -156 90t-40 130q0 80 50 136t146 64v52h72v-52q96 -8 142 -54t58 -118l-124 -16q-12 52 -76 80v-192q140 -44 176 -84zM1440 1152 q-48 -16 -62 -40t-14 -44q0 -28 12 -46t64 -42v172zM1588 660q24 28 24 64q0 32 -16 54t-84 42v-196q56 12 76 36zM1384 236h148v-356h-1528v1452l580 588h948v-436h-148v288h-728v-508h-508v-1236h1236v208z" />
<glyph unicode="&#xe00f;" horiz-adv-x="1888" d="M1568 40h-156v624h-312v-624h-780v780h-160v-940h1568v940h-160v-780zM472 664h472v-468h-472v468zM160 1920h1568v-156h-1568v156zM1884 1136l-156 468h-168l160 -468h-260l-76 468h-160l80 -468h-280v468h-160v-468h-280l80 468h-160l-76 -468h-260l160 468h-168 l-156 -468v-116q0 -56 34 -88t82 -32q44 0 82 32t38 88q0 -56 34 -88t82 -32q44 0 80 32t36 88q0 -60 38 -90t78 -30q44 0 82 30t38 90q0 -60 38 -90t78 -30q44 0 82 30t38 90q0 -60 38 -90t78 -30q44 0 82 30t38 90q0 -60 38 -90t78 -30q44 0 80 30t36 90q0 -60 36 -90 t80 -30t82 30t38 90q0 -60 36 -90t80 -30t82 30t38 90v116z" />
<glyph unicode="&#xe010;" horiz-adv-x="1800" d="M1740 704q0 -356 -254 -610t-612 -254t-612 254t-254 614t252 614t612 254v344l692 -436l-692 -432v348q-288 0 -490 -204t-202 -490t202 -490t492 -204t492 204t202 488h172z" />
<glyph unicode="&#xe011;" horiz-adv-x="1764" d="M1748 1480v-1160l-872 -440l-872 440v1160l436 220l876 -436v-436l-148 -72v420l-728 360l-292 -140v-992l728 -360l728 360v992l-728 360l-112 -56l-164 84l276 136zM296 680l432 -216v-180l-432 212v184z" />
<glyph unicode="&#xe012;" horiz-adv-x="2068" d="M1516 224q164 176 212 404h160q-28 -168 -114 -312t-210 -250t-280 -166t-324 -60q-196 0 -366 76t-298 204t-204 298t-76 366q0 168 60 324t166 282t248 210t310 112v-156q-140 -36 -254 -108t-196 -174t-128 -228t-46 -262q0 -164 60 -306t168 -250t250 -168t306 -60 q316 0 556 224zM960 864v-80h628v-156h-788v624h160v-388zM1400 1356l-292 216h368l108 344l112 -344h368l-296 -216l112 -352l-296 216l-292 -216z" />
<glyph unicode="&#xe013;" horiz-adv-x="1960" d="M2040 1048v-588h-872v148h-296v732h876v-292h292zM1168 1048h432v144h-580v-440h148v296zM1892 900h-580v-292h580v292zM1384 320h144v-440h-1528v1452l580 588h948v-440h-144v292h-728v-508h-508v-1236h1236v292z" />
<glyph unicode="&#xe014;" horiz-adv-x="1920" d="M136 416q-24 -32 -64 -32q-28 0 -50 20t-22 52q16 60 64 106t106 76t116 46t98 16q84 0 210 -46t326 -150q192 -104 306 -146t190 -42q172 0 304 164q16 28 56 28q28 0 50 -22t22 -62q0 -28 -30 -66t-70 -70t-82 -58t-66 -30q-56 -24 -102 -30t-74 -6q-84 0 -220 46 t-352 162q-180 100 -288 140t-172 40q-156 0 -256 -136zM1720 152q16 28 56 28q28 0 50 -22t22 -58q0 -32 -28 -66t-68 -66t-82 -58t-70 -38q-44 -20 -90 -26t-86 -6q-84 0 -220 46t-352 162q-180 96 -288 138t-168 42q-152 0 -260 -164q-24 -32 -64 -32q-28 0 -50 20 t-22 56q0 72 52 124t118 82t132 44t90 14q88 0 212 -44t316 -152q192 -104 310 -144t190 -40q176 0 300 160zM516 1068q0 -32 -22 -50t-50 -18t-50 18t-22 50v224q0 188 124 316t316 128h60q56 96 158 160t222 64q96 0 178 -36t142 -96t94 -142t34 -174v-892l-144 76v128 l-300 -200l-4 -120q-32 12 -66 30t-78 38v720q0 168 -148 256q-4 -4 -4 -36v-204q4 -4 4 -16q0 -36 -22 -54t-54 -18q-28 0 -50 18t-22 54v296q-124 0 -210 -84t-86 -212v-224zM1556 1196l-300 -196v-176l300 196v176zM1252 1808q-148 0 -236 -120q108 -56 172 -162t64 -234 v-96l304 196v120q0 128 -88 212t-216 84z" />
<glyph unicode="&#xe015;" horiz-adv-x="2120" d="M2060 1232q60 -180 60 -372q0 -404 -264 -712l-64 56l-628 632zM1908 1352l-804 -356v964q284 -20 518 -174t366 -398zM1104 660l572 -572q-252 -212 -572 -240q-48 -4 -88 -4t-84 4q-256 20 -470 162t-338 366q-40 72 -68 152q-56 160 -56 332q0 376 240 664 q60 64 120 116q248 208 572 240v-1052z" />
<glyph unicode="&#xe016;" horiz-adv-x="1760" d="M1696 1920v-2036h-1696v2036h1696zM1528 1748h-1356v-1356h1356v1356zM1016 1156l344 -592h-680zM816 968q-136 104 -136 272q0 144 100 242t240 98t240 -98t100 -242q0 -168 -140 -272l-204 360zM680 732h-340v680h292q-28 -60 -36 -132v-40v-4q0 -220 172 -344z" />
<glyph unicode="&#xe017;" horiz-adv-x="2160" d="M2048 1040v-1168h-1240v156l1092 1012h148zM1904 820l-876 -796h876v796zM1168 1116h-336l112 -308l-268 208l-92 -324l-92 324l-268 -208l112 316h-336l280 184l-280 184h336l-112 308l268 -204l92 324l92 -324l268 204l-112 -316h336l-276 -176zM368 1304 q0 -88 64 -152t152 -64t152 64t64 154t-64 152t-152 62t-152 -62t-64 -154zM1748 1316l144 -132l-1232 -1156l-144 132z" />
<glyph unicode="&#xe018;" horiz-adv-x="1932" d="M716 1408h920v-280h-920v280zM764 932h156v-140h-156v140zM1076 932h156v-140h-156v140zM1380 932h156v-140h-156v140zM764 652h156v-148h-156v148zM1076 652h156v-148h-156v148zM1380 652h156v-148h-156v148zM764 376h156v-148h-156v148zM1076 376h156v-148h-156v148z M1380 376h156v-148h-156v148zM1920 1664v-1792h-1792v128h1664v1536h-1160v128h1288zM512 272q0 -36 -24 -58t-56 -22h-348q-32 0 -54 22t-22 58v1568q0 32 22 56t54 24h348q32 0 56 -24t24 -56v-1568z" />
<glyph unicode="&#xe019;" horiz-adv-x="2176" d="M1696 280q192 184 240 448h184q-32 -188 -126 -350t-234 -282t-318 -188t-374 -68q-220 0 -414 84t-340 230t-230 340t-84 414q0 196 68 374t188 318t282 234t350 126v-184q-156 -28 -288 -110t-224 -198t-144 -260t-52 -300q0 -184 70 -346t190 -282t282 -190t346 -70 q368 0 628 260zM1068 992v-84h712v-180h-892v716h180v-452zM1936 1088q-52 264 -238 450t-450 238v184q164 -28 310 -106t262 -194t194 -262t106 -310h-184z" />
<glyph unicode="&#xe01a;" horiz-adv-x="1880" d="M1796 780q88 0 168 -44t80 -104q0 -92 -136 -92q-72 0 -166 22t-158 58q-128 -28 -230 -52t-170 -44q-132 -204 -216 -204l-28 4q-84 28 -84 104q0 68 120 148l124 48q112 180 168 356q-28 28 -36 88t-8 100q0 88 28 150t84 62q44 0 70 -48t26 -144q0 -40 -6 -88 t-22 -104q104 -192 200 -252l124 28q40 8 68 8zM1452 712q-56 52 -96 120l-84 -160zM1392 316h140v-436h-1528v1452l580 588h948v-384h-140v240h-736v-508h-508v-1244h1244v292z" />
<glyph unicode="&#xe01b;" horiz-adv-x="2156" d="M1244 1960q188 -32 350 -128t280 -236t184 -316t66 -372q0 -220 -84 -414t-228 -340t-336 -230t-412 -84q-192 0 -368 68t-316 188t-236 282t-124 350h180q32 -160 114 -290t198 -224t258 -144t294 -50q180 0 340 70t280 192t190 284t70 342q0 152 -50 296t-144 262 t-222 200t-284 110v184zM1064 1444v-540h704v-176h-880v716h176zM448 1264l-444 -272v536l148 -84q112 204 304 340t432 176v-184q-192 -36 -344 -146t-248 -278z" />
<glyph unicode="&#xe01c;" horiz-adv-x="2048" d="M1460 1044v296h-440v284h440v296l580 -440zM728 1920q60 0 104 -44t44 -104v-292q0 -60 -44 -102t-104 -42h-144v584h144zM728 464q60 0 104 -42t44 -102v-292q0 -60 -44 -104t-104 -44h-144v584h144zM220 1780q104 140 216 140v-584q-60 0 -102 -128t-42 -310t42 -310 t102 -128v-580q-116 0 -216 136t-160 370t-60 514t60 512t160 368z" />
<glyph unicode="&#xe01d;" horiz-adv-x="1920" d="M1660 1000l48 -68v-932h-1704v1504h1148v-136h-1012v-728l80 80q-12 20 -12 44q0 40 30 70t74 30t74 -30t30 -70q0 -24 -12 -44l136 -136q20 8 44 8l200 372q-28 28 -28 72q0 40 30 70t72 30t72 -30t30 -70q0 -44 -28 -72l184 -372q40 0 64 -12l392 340zM1572 828 l-348 -300q8 -20 8 -36q0 -44 -30 -74t-72 -30t-72 30t-30 74q0 40 28 68l-188 372h-24l-184 -372q28 -28 28 -68q0 -44 -30 -74t-72 -30t-72 30t-30 74q0 20 8 44l-136 136q-20 -12 -44 -12t-44 12l-128 -128v-408h1432v692zM1816 1384l96 -300l-256 184l-256 -184l96 300 l-256 188h320l96 300l100 -300h316z" />
<glyph unicode="&#xe01e;" horiz-adv-x="2052" d="M1568 1016q20 -24 68 -48v240q-128 36 -176 100q-52 64 -52 156q0 96 60 160q56 64 168 76v56h88v-56q108 -16 160 -64q56 -52 72 -140l-148 -16q-12 60 -84 92v-228q160 -40 204 -96q52 -60 52 -152q0 -104 -64 -176q-60 -72 -192 -88v-100h-88v96q-112 16 -172 76 q-64 60 -80 176l152 16q8 -48 32 -80zM1724 960q64 12 88 40q24 32 24 76q0 36 -20 64q-20 24 -92 44v-224zM1568 1416q16 -20 68 -44v200q-48 -16 -64 -40q-20 -28 -20 -60t16 -56zM812 732q120 0 206 -86t86 -206v-440h-1100v440q0 120 86 206t206 86l148 8 q-128 36 -210 142t-82 246q0 164 118 282t284 118t284 -118t118 -282q0 -140 -82 -246t-210 -142zM1320 440h732v-148h-732v148zM1320 148h732v-148h-732v148z" />
<glyph unicode="&#xe01f;" horiz-adv-x="1664" d="M1660 1792v-1920h-1660v1920h256v128h132v-128h380v128h132v-128h380v128h132v-128h248zM1280 1536h128v128h-128v-128zM752 1536h144v128h-144v-128zM256 1536h132v128h-132v-128zM1536 1408h-1408v-1408h1408v1408zM384 1152h896v-128h-896v128zM384 768h896v-128h-896 v128zM384 384h896v-128h-896v128z" />
<glyph unicode="&#xe020;" horiz-adv-x="2048" d="M2048 1756v-1172h-2048v1172h2048zM1900 1464q-68 0 -110 42t-42 102h-696q144 -12 242 -138t98 -298q0 -92 -28 -172t-78 -140t-118 -94t-144 -34t-142 34t-116 94t-78 140t-28 172q0 172 98 298t242 138h-704q0 -60 -44 -102t-104 -42v-584q60 0 104 -44t44 -104h1460 q0 60 42 104t102 44v584zM808 1428q-44 -56 -66 -122t-22 -134q0 -152 90 -260t218 -108t214 110t86 258q0 72 -24 138t-64 116t-96 80t-116 30t-118 -26t-102 -82zM480 1252q36 -44 36 -92q0 -60 -42 -106t-102 -46q-52 0 -94 42t-42 90q0 60 42 108t102 48q56 0 100 -44z M1764 1256q36 -44 36 -92q0 -60 -44 -106t-104 -46q-48 0 -92 40t-44 92q0 60 40 108t100 48q56 0 108 -44zM0 388h2048v-128h-2048v128zM0 128h2048v-128h-2048v128zM964 1036l16 -16t16 -12v148q-60 12 -94 54t-34 90q0 44 34 82t94 46v36h56v-36q56 -4 86 -34t38 -78 l-84 -12q-4 32 -40 52v-128q84 -28 112 -60t28 -88q0 -128 -140 -152v-60h-56v60q-116 20 -140 144l88 8q4 -20 20 -44zM1052 1004q32 4 46 22t14 38q0 48 -60 76v-136zM996 1244v112q-40 -12 -40 -48q0 -44 40 -64z" />
<glyph unicode="&#xe021;" horiz-adv-x="1404" d="M8 1264q0 144 56 270t150 220t220 150t270 56t270 -56t220 -152t148 -222t54 -266t-52 -260l-640 -1124l-644 1124q-52 120 -52 260zM1192 1084q32 96 32 180q0 108 -42 202t-112 164t-166 112t-204 42q-104 0 -198 -40t-164 -112t-112 -166t-42 -202q0 -84 32 -180 l488 -856zM948 1508q100 -100 100 -240q0 -68 -26 -130t-74 -110t-110 -78t-134 -30q-144 0 -246 102t-102 246q0 72 28 134t76 110t110 74t130 26q136 0 248 -104zM824 1144q52 52 52 124q0 68 -52 120t-124 52q-68 0 -120 -50t-52 -122q0 -76 50 -124t122 -48q76 0 124 48 z" />
<glyph unicode="&#xe022;" horiz-adv-x="1776" d="M1212 1500v-192q160 -92 254 -252t94 -352q0 -140 -54 -264t-148 -220t-220 -152t-274 -56q-144 0 -270 54t-220 148t-148 220t-54 270q0 192 94 352t254 252v192q-236 -100 -378 -316t-142 -480q0 -176 68 -334t186 -276t276 -186t334 -68q180 0 340 70t276 188t184 274 t68 332q0 264 -142 480t-378 316zM780 1920h172v-1216h-172v1216z" />
<glyph unicode="&#xe023;" horiz-adv-x="2048" d="M2048 1512v-252l-440 -624l-440 588l-420 -564l-444 296l-304 -300v208l284 280l432 -284l452 604l436 -580zM1608 172l440 440v-208l-440 -440l-448 448l-428 -284l-444 296l-288 -144v164l300 148l432 -288l448 296z" />
<glyph unicode="&#xe024;" horiz-adv-x="1352" d="M8 1292q0 280 196 476t472 196t472 -196t196 -476q0 -136 -124 -332q-48 -80 -108 -152l-164 -408h-544l-164 408q-60 68 -108 152q-124 196 -124 332zM992 896q68 80 136 196t68 200q0 216 -152 368t-368 152t-368 -152t-152 -368q0 -84 68 -200t136 -196l8 -12 l140 -332h336zM456 -48h444l-76 -72h-296zM952 328q24 0 24 -24v-252q0 -20 -24 -20h-548q-24 0 -24 20v252q0 24 24 24h548zM800 124q24 24 24 56t-22 54t-52 22t-50 -22t-20 -54t20 -54t50 -22t50 20z" />
<glyph unicode="&#xe025;" horiz-adv-x="2048" d="M1608 1780l104 -316h332l-272 -196l104 -316l-268 196l-272 -196l104 316l-268 196h332zM804 732l-144 8q128 36 210 142t82 242q0 168 -118 286t-284 118t-284 -118t-118 -286q0 -136 82 -242t210 -142l-148 -8q-120 0 -206 -86t-86 -206v-440h1096v440q0 120 -86 206 t-206 86zM1316 440h732v-148h-732v148zM1316 148h732v-148h-732v148z" />
<glyph unicode="&#xe026;" horiz-adv-x="2080" d="M1104 956q168 -36 236 -124t68 -172q0 -124 -82 -214t-222 -98v-132h-100v128q-104 4 -188 80t-100 228l164 20q12 -56 48 -100t76 -60v292q-128 44 -206 130t-78 178q0 48 20 100t58 96t90 74t116 34v84h100v-84q232 -16 280 -248l-144 -24q-8 48 -44 80t-92 36v-304z M1104 496q56 16 94 58t38 90q0 96 -132 140v-288zM1004 1264q-44 -16 -72 -52t-28 -76q0 -80 100 -128v256zM1812 1652q308 -316 308 -752q0 -216 -82 -408t-226 -338t-338 -230t-414 -84t-412 84t-336 228t-228 336t-84 412t84 414t230 338t338 226t408 82q436 0 752 -308z M1680 276q260 260 260 624q0 180 -70 340t-190 280t-280 190t-340 70t-340 -70t-280 -190t-190 -280t-70 -340q0 -184 68 -344t188 -280t280 -188t344 -68q364 0 620 256z" />
<glyph unicode="&#xe027;" horiz-adv-x="2048" d="M580 1480h876v-580h-876v580zM368 608q-76 0 -76 72v1020q0 28 22 50t54 22h1304q32 0 54 -22t22 -50v-1020q0 -72 -76 -72h-1304zM440 752h1160v876h-1160v-876zM2040 28q0 -60 -44 -104t-104 -44h-1744q-60 0 -104 44t-44 104l292 432h1456zM1312 28l-72 144h-440 l-72 -144h584z" />
<glyph unicode="&#xe028;" horiz-adv-x="2048" d="M1760 1428l-164 164l52 56l112 -108l224 276l56 -56zM1984 1264l56 -56l-280 -332l-164 164l52 56l112 -112zM784 592q116 0 200 -84t84 -200v-428h-1068v428q0 116 84 200t204 84l140 8q-124 36 -204 140t-80 236q0 84 30 154t84 124t124 84t150 30q168 0 282 -112 t114 -280q0 -132 -82 -236t-206 -140zM1024 1792h384v-128h-384v128zM1024 1536h384v-128h-384v128zM1024 1280h384v-128h-384v128z" />
<glyph unicode="&#xe029;" horiz-adv-x="2048" d="M1740 936q76 12 144 44v-980h-1860v1504h1148q-4 -36 -4 -72t4 -72h-1008v-1216h1576v644l-352 -244q8 -20 8 -44q0 -44 -32 -78t-80 -34t-80 34t-32 78q0 48 32 80l-208 412h-28l-204 -412q32 -32 32 -76q0 -48 -34 -82t-80 -34t-80 34t-34 82q0 24 12 48l-148 148 q-24 -12 -50 -12t-50 12l-160 -160v108l108 108q-12 20 -12 48q0 44 34 78t80 34t80 -34t34 -78q0 -28 -12 -48l152 -152q20 12 48 12l12 -4l208 412q-32 32 -32 80q0 44 32 78t80 34t80 -34t32 -78q0 -48 -32 -80l208 -412q8 4 12 4q28 0 56 -16l400 284v52zM1592 1036 l-288 288l116 112l168 -176l348 436l108 -112z" />
<glyph unicode="&#xe02a;" horiz-adv-x="2048" d="M2036 1336h-436v-292l-580 436l580 440v-296h436v-288zM728 1916q60 0 102 -42t42 -102v-292q0 -60 -42 -102t-102 -42h-148v580h148zM728 460q60 0 102 -40t42 -100v-292q0 -60 -42 -104t-102 -44h-148v580h148zM440 1336q-60 0 -104 -128t-44 -310t44 -310t104 -128 v-580q-120 0 -220 136t-160 370t-60 514t60 512t160 368t220 136v-580z" />
<glyph unicode="&#xe02b;" horiz-adv-x="2048" d="M1536 1280l-512 -636l-512 636h384v640h256v-640h384zM2048 512v-640h-2048v640h512v0q0 -64 32 -96t96 -32h772q60 0 92 32t32 96v0h512zM1280 256h-512v-128h512v128z" />
<glyph unicode="&#xe02c;" horiz-adv-x="2048" d="M256 1408h644v-256h-644v256zM256 896h1152v-256h-1152v256zM256 384h1792v-256h-1792v256zM0 1664h128v-1664h-128v1664z" />
<glyph unicode="&#xe02d;" horiz-adv-x="2124" d="M1812 1652q148 -160 226 -352t78 -400q0 -220 -82 -414t-226 -338t-336 -226t-412 -82q-216 0 -408 84t-336 226t-230 334t-86 408q0 220 84 416t228 340t338 228t410 84q436 0 752 -308zM1796 416q144 220 144 484q0 180 -70 340t-190 280t-280 190t-340 70 q-192 0 -354 -72t-278 -194t-182 -282t-66 -332q0 -180 70 -340t190 -280t280 -190t340 -70q228 0 422 96t314 300zM1148 900h620v-180h-884v712h176v-532h88z" />
<glyph unicode="&#xe02e;" horiz-adv-x="1960" d="M832 1884l88 -348v-216q-156 -24 -260 -148t-104 -292t104 -290t260 -150v-212l-104 -348l-84 556l-456 -284l280 468l-556 44l480 216l-480 268h556l-280 460l468 -280zM920 612q-88 24 -152 106t-64 178q0 104 64 186t152 106v-576zM1964 812h-148l76 -208h-156 l-68 208h-196l-44 -84l96 -68l72 -152h-148l-104 72l-44 -68l100 -172h204l72 -120h-204l76 -136l-28 -100l-100 24l-76 136l-96 -148l-68 132l88 136l-96 172h-152v148h128l180 296l-180 300h-128v148h152l96 168l-88 132l72 136l96 -144l72 136l104 24l24 -104l-76 -128 h168l-72 -136l-168 12l-100 -176l40 -68l108 72h152l-76 -148l-96 -68l44 -84h196l68 152h156l-76 -152h148l76 -72zM1148 880l-124 -144v288z" />
<glyph unicode="&#xe02f;" horiz-adv-x="2048" d="M728 824h-728v148h1092v-148h-72l-148 -144zM1892 320h148v-440h-2040v872h148v-724h1744v292zM2040 1772v-1164h-148v728h-1744v-292h-148v728h440v148h140v-148h148v148h144v-148h296v148h144v-148h148v148h140v-148h440zM580 1624h-140v-144h140v144zM872 1624h-144 v-144h144v144zM1312 1624h-144v-144h144v144zM1600 1624h-140v-144h140v144zM656 532h1384v-144h-396l-144 -144l-144 144h-336l-148 -144l-144 144h-72v144z" />
<glyph unicode="&#xe030;" horiz-adv-x="2160" d="M1656 1532q-256 252 -612 252q-180 0 -338 -68t-274 -184t-184 -274t-68 -338q0 -152 50 -292t142 -252t218 -192t278 -112v-176q-188 28 -344 120t-272 230t-182 310t-66 364q0 216 84 404t226 330t330 224t400 82q188 0 358 -66t308 -182t232 -274t126 -342h-176 q-52 252 -236 436zM1128 748h-260v692h176v-520h692v-172h-608zM2068 748q-40 -232 -174 -422t-330 -302l80 -144h-516l264 440l84 -148q156 92 268 242t148 334h176z" />
<glyph unicode="&#xe031;" horiz-adv-x="1320" d="M1280 0h-128v-128h-256v128h-508v-128h-260v128h-128v1772q0 60 42 104t102 44h992q60 0 102 -44t42 -104v-1772zM1152 1720q0 32 -22 52t-50 20h-880q-28 0 -50 -20t-22 -52v-1592h1024v1592zM384 1536h516v-128h-516v128zM728 1096h292v-72h-292v72z" />
<glyph unicode="&#xe032;" horiz-adv-x="2048" d="M340 1192h1708v-1192h-1708v1192zM1876 1364h-1704v-1364h-172v1704h684l168 -168h1024v-172z" />
<glyph unicode="&#xe033;" horiz-adv-x="1884" d="M1828 700q-48 48 -164 76v180q24 -12 42 -30t22 -46l116 16q-8 80 -60 110t-120 46v44h-64v-44q-80 -8 -130 -54t-50 -122q0 -88 44 -136t136 -72v-184q-68 20 -80 100l-120 -16q16 -80 62 -132t138 -60v-72h64v72q92 8 146 64t54 144q0 68 -36 116zM1600 800 q-32 16 -48 26t-16 50q0 36 20 54t44 26v-156zM1736 508q-20 -20 -72 -28v168q92 -20 92 -80q0 -24 -4 -32zM152 460h188v-140h-336v1600h1208v-292h-148v144h-912v-1312zM812 320h520v-148h-520v148zM812 608h520v-148h-520v148zM812 900h520v-148h-520v148zM1544 200h144 v-320h-1204v1168l480 428h724v-236h-144v100h-584v-292h-332v-1020h916v172z" />
<glyph unicode="&#xe034;" horiz-adv-x="1960" d="M2016 1340v-900h-1216v900h1216zM1868 1192h-196v-220h196v220zM1528 972v220h-216v-220h216zM1312 828v-240h216v240h-216zM948 1192v-220h220v220h-220zM948 588h220v240h-220v-240zM1868 588v240h-196v-240h196zM1384 296h144v-416h-1528v1452l580 588h948v-440h-144 v292h-728v-508h-508v-1236h1236v268z" />
<glyph unicode="&#xe035;" horiz-adv-x="1000" d="M296 600q-12 56 -36 100l600 184q48 12 48 64q0 32 -18 58t-50 26q-8 0 -12 -2t-12 -2l-744 -224q-8 -8 -20 -10t-20 -18l-8 -32q-4 -4 -4 -16q0 -36 14 -52t30 -20t26 -2t-2 2q32 0 58 -64t26 -160h144q0 80 -20 168zM96 952q-56 0 -72 52q-8 36 6 62t42 34l744 224 q28 8 56 -6t36 -46t-6 -58t-42 -34l-744 -224q-12 -4 -20 -4zM96 1248q-56 0 -72 56q-8 32 6 58t42 34l744 224q28 8 56 -6t36 -44t-6 -58t-42 -36l-744 -224q-12 -4 -20 -4zM96 1548q-56 0 -72 56q-8 28 6 54t42 34l744 224q28 8 56 -6t36 -42t-6 -58t-42 -38l-744 -220 q-12 -4 -20 -4zM780 496q24 88 56 88t54 22t22 52t-22 50t-54 20q-148 0 -200 -200q-12 -44 -16 -96h152zM816 288h-700q-20 0 -20 -24v-252q0 -20 20 -20h56q0 -64 86 -108t208 -44t210 44t88 108h52q20 0 20 20v252q0 24 -20 24zM664 84q-20 -20 -50 -20t-52 22t-22 52 t22 52t52 22t54 -22t24 -52t-28 -54z" />
<glyph unicode="&#xe036;" horiz-adv-x="1600" d="M1084 832q96 0 182 -38t148 -100t98 -146t36 -176v-500h-1544v500q0 92 36 176t98 146t148 100t182 38v-156l152 200q-168 56 -274 198t-106 342q0 112 44 210t118 174t172 118t206 42t208 -44t174 -120t118 -174t44 -206q0 -200 -112 -346t-280 -194l152 -200v156z M1344 320h-324v-128h324v128z" />
<glyph unicode="&#xe037;" horiz-adv-x="2052" d="M1024 740l-764 796h1532zM2048 1536v-1536h-2044v1536l1024 -1048z" />
<glyph unicode="&#xe038;" horiz-adv-x="2048" d="M2040 1648l-272 -272l-272 272l272 272zM1360 1512l272 -272l-1088 -1088l-272 272zM136 288l272 -272l-408 -136z" />
<glyph unicode="&#xe039;" horiz-adv-x="2048" d="M148 460h508v-140h-656v1600h1240v-292h-148v144h-944v-1312zM2040 1480v-1600h-1240v580h148v-432h944v1312h-944v-292h-148v432h1240zM1168 460v148h-728v292h728v148l432 -296z" />
<glyph unicode="&#xe03a;" horiz-adv-x="2048" d="M1536 1020l-512 -636l-512 636h384v900h256v-900h384zM2048 128v-256h-2048v256h2048z" />
<glyph unicode="&#xe03b;" horiz-adv-x="1964" d="M1384 320h144v-440h-1528v1452l580 588h948v-440h-144v292h-728v-508h-508v-1236h1236v292zM2040 1340l-220 -880h-148l-212 660l-220 -660h-148l-220 880h148l148 -660l216 660h144l220 -660l144 660h148z" />
<glyph unicode="&#xe03c;" horiz-adv-x="2048" d="M268 984l144 144q24 24 52 24t50 -22t22 -52t-24 -50l-140 -148q-24 -20 -54 -20t-50 20t-20 52t20 52zM556 912l220 216q20 24 50 24t52 -22t22 -52t-20 -50l-220 -220q-24 -24 -54 -24t-50 22t-20 52t20 54zM884 848l288 284q20 24 50 24t52 -22t22 -52t-20 -50 l-288 -288q-20 -20 -50 -20t-52 22t-22 52t20 50zM1176 764l360 364q20 24 52 24t52 -22t20 -52t-20 -50l-360 -368q-24 -20 -54 -20t-52 22t-22 52t24 50zM1552 764l72 72q20 24 52 24t52 -22t20 -52t-20 -54l-72 -72q-24 -20 -54 -20t-50 22t-20 52t20 50zM1252 200 q0 -36 20 -72h-156q-8 36 -8 72q0 124 86 208t206 84t204 -84t84 -208q0 -36 -8 -72h-152q16 36 16 72q0 64 -42 104t-102 40t-104 -40t-44 -104zM488 128h-172q-28 72 -28 148q0 148 106 254t256 106t256 -106t106 -254q0 -76 -28 -148h-172q56 64 56 148t-64 150t-156 66 t-154 -66t-62 -150t56 -148zM980 1700q48 0 80 -32t32 -78t-32 -78t-78 -32t-78 32t-32 78t32 78t76 32zM1196 1588q0 48 32 80t76 32t76 -32t32 -78t-32 -78t-76 -32t-76 32t-32 76zM1612 1700q48 0 80 -32t32 -78t-32 -78t-78 -32t-78 32t-32 78t32 78t76 32zM2048 1920 v-2048h-2048v2048h2048zM124 1408h1796v384h-1796v-384zM1920 0v1280h-1792v-1280h1792z" />
<glyph unicode="&#xe03d;" horiz-adv-x="1792" d="M1792 1792v-128h-1792v128h580q-4 0 28 64t160 64h260q124 0 156 -64l32 -64h576zM1608 1536h184v-132h-128l-128 -1404q0 -128 -128 -128h-1024q-128 0 -128 128l-128 1404h-128v132h1472h136zM1536 1404h-1280l128 -1276h1024zM636 256h-124v1028h124v-1028zM960 256 h-136v1028h136v-1028zM1280 256h-132v1028h132v-1028z" />
<glyph unicode="&#xe03e;" horiz-adv-x="1980" d="M976 632l-720 -716l-204 208l708 712l-684 684l200 208l700 -684l728 700l216 -208l-716 -696l716 -720l-204 -204z" />
<glyph unicode="&#xe03f;" horiz-adv-x="1600" d="M1280 512h128v-640h-1408v2048h1408v-512h-128v384h-1152v-1792h1152v512zM1028 752l580 588l144 -148l-724 -732l-440 440l144 148z" />
<glyph unicode="&#xe040;" horiz-adv-x="2076" d="M1180 592q-44 -12 -88 -12v-132q92 0 172 -56t80 -144v-56h116q116 0 194 -94t78 -226h-1420q4 132 78 226t190 94h124v56q0 88 76 144t168 56v132q-96 0 -194 34t-192 88t-176 122t-142 140q-244 284 -244 636v192h440v128h1160v-128h440v-192q0 -172 -66 -334 t-182 -298t-272 -234t-340 -142zM1596 1600q-16 -240 -60 -426t-112 -322q108 56 194 138t146 182t94 210t34 218h-296zM148 1600q0 -108 34 -218t94 -210t146 -182t194 -138q-68 136 -112 322t-60 426h-296zM580 1792q0 -216 28 -404t78 -330t118 -224t144 -82 q-48 0 -88 82t-70 224t-46 332t-16 402h-148z" />
<glyph unicode="&#xe041;" horiz-adv-x="1776" d="M1728 1920v-2048h-1728v2048h1728zM1600 1792h-1472v-1792h1472v1792zM384 1536h980v-256h-980v256zM428 1108h212v-212h-212v212zM768 1108h212v-212h-212v212zM1108 1108h216v-212h-216v212zM428 768h212v-212h-212v212zM768 768h212v-212h-212v212zM1108 768h216v-212 h-216v212zM428 428h212v-216h-212v216zM768 428h212v-216h-212v216zM1108 428h216v-216h-216v216z" />
<glyph unicode="&#xe042;" horiz-adv-x="2280" d="M2084 1652q64 0 112 -46t48 -110v-1316q0 -68 -48 -124t-112 -56h-1920q-68 0 -116 56t-48 124v1316q0 64 48 110t116 46h1920zM1920 1316h-128q-24 -76 -96 -128q-68 -56 -128 -72v-140q116 36 200 116v-580h152v804zM288 976q120 36 200 116v-580h152v804h-124 q-24 -76 -94 -128t-134 -72v-140zM1044 512l104 164l104 -164h172l-192 272l176 248h-164l-96 -140l-92 140h-168l180 -252l-188 -268h164zM1764 172v164h-640v-164h640z" />
<glyph unicode="&#xe043;" horiz-adv-x="2048" d="M580 148q48 -48 48 -112q0 -60 -48 -108t-108 -48q-64 0 -110 46t-46 110q0 68 46 114t110 46q60 0 108 -48zM1836 148q48 -48 48 -112t-50 -110t-110 -46t-108 46t-48 110q0 68 48 114t108 46q64 0 112 -48zM592 1448l-48 156h1496l-316 -784h-952l-48 160h896l188 468 h-1216zM1804 504q40 0 58 -24t18 -52q0 -32 -18 -54t-58 -22h-1408q-36 0 -58 20t-22 52q0 24 8 36l144 292l-292 1008h-96q-40 0 -60 24t-20 56t20 56t60 24h156q56 0 76 -56l312 -1100q0 -8 2 -12t2 -12t-8 -32l-104 -204h1288z" />
<glyph unicode="&#xe044;" horiz-adv-x="2048" d="M1572 1536q0 92 64 156t156 64t156 -64t64 -156t-64 -156t-156 -64t-156 64t-64 156zM2048 220l-584 892l-312 -436l312 -456h584zM1464 0h-1464l692 1112z" />
<glyph unicode="&#xe045;" horiz-adv-x="2048" d="M0 1408v-1408h2048v1408h-2048zM1384 336q-148 -148 -360 -148t-362 150t-150 362t150 362t362 150t362 -150t150 -362t-152 -364zM1364 696q0 144 -100 244t-240 100t-240 -100t-100 -242t100 -242t240 -100t240 100t100 240zM1152 1792h768v-256h-768v256z" />
<glyph unicode="&#xe046;" horiz-adv-x="1880" d="M1792 1792v-1920h-1788v1920h252v128h132v-128h252v128h128v-128h384v128h128v-128h128v128h132v-128h252zM1408 1536h128v128h-128v-128zM1152 1536h128v128h-128v-128zM640 1536h128v128h-128v-128zM256 1536h132v128h-132v-128zM1664 1280h-1536v-1280h1536v1280z M1172 408h-380v148l380 516h152v-516h152v-148h-152v-188h-152v188zM944 556h228v304zM512 824q-64 -40 -148 -40v152q64 0 106 38t42 98h152v-864h-152v616z" />
<glyph unicode="&#xe047;" horiz-adv-x="1960" d="M1196 860l-1196 -852v1704zM2048 860l-1196 -852v400l636 452l-636 452v400z" />
<glyph unicode="&#xe048;" horiz-adv-x="2048" d="M736 1616q-4 4 -4 20q0 28 20 52t52 24q48 0 68 -56l212 -692q0 -8 2 -12t2 -12q0 -24 -18 -48t-50 -24q-52 0 -72 52zM2036 1012v-284h-124l-184 -728h-1420l-184 728h-124v284h800v-68q0 -88 62 -152t154 -64t156 64t64 152v68h800zM1760 728h-452q-108 -144 -292 -144 q-180 0 -288 144h-452l148 -584h1188z" />
<glyph unicode="&#xe049;" horiz-adv-x="2048" d="M4 512h380v-512h-380v512zM552 1280h388v-1280h-388v1280zM1108 1024h384v-1024h-384v1024zM1664 1792h380v-1792h-380v1792z" />
<glyph unicode="&#xe04a;" horiz-adv-x="2124" d="M1932 1696q116 -128 116 -280q0 -160 -116 -276l-996 -996q-160 -160 -388 -160q-112 0 -212 44t-174 118t-118 174t-44 212q0 228 160 388l888 884l108 -108l-884 -888q-60 -60 -88 -130t-28 -142q0 -76 28 -148t80 -126t124 -88t160 -34q160 0 276 116l1000 996 q68 68 68 164q0 92 -72 164t-164 72q-100 0 -168 -68l-828 -832q-24 -24 -24 -52q0 -36 24 -58t56 -22t56 24l716 716l112 -108l-720 -720q-68 -68 -168 -68q-92 0 -162 70t-70 162q0 100 68 168l832 832q112 112 272 112q72 0 146 -28t134 -84z" />
<glyph unicode="&#xe04b;" horiz-adv-x="1800" d="M528 -128v852h-512l852 1196l852 -1196h-512v-852h-680z" />
<glyph unicode="&#xe04c;" horiz-adv-x="2048" d="M0 1200h852v512l1196 -852l-1196 -856v512h-852v684z" />
<glyph unicode="&#xe04d;" horiz-adv-x="2048" d="M2048 508h-852v-512l-1196 856l1196 852v-512h852v-684z" />
<glyph unicode="&#xe04e;" horiz-adv-x="1764" d="M1212 1920v-852h512l-852 -1196l-852 1196h512v852h680z" />
<glyph unicode="&#xe04f;" horiz-adv-x="1536" d="M1536 1920v-2048h-1536v2048h1536zM1408 1792h-1280v-1792h1280v1792zM1068 796l88 -88l-424 -492l-256 252l84 88l172 -172zM384 1536h772v-128h-772v128zM384 1280h772v-128h-772v128z" />
<glyph unicode="&#xe050;" horiz-adv-x="2048" d="M256 1152h256v-256h-256v256zM640 1152h256v-256h-256v256zM1072 1152h280v-188h-280v188zM1536 1152h256v-256h-256v256zM256 768h256v-256h-256v256zM640 768h256v-256h-256v256zM1416 500h-392v360h392v-360zM1336 784h-228v-196h228v196zM1536 772h256v-260h-256v260 zM256 384h256v-256h-256v256zM640 384h256v-256h-256v256zM1072 388h280v-260h-280v260zM1536 384h256v-256h-256v256zM2044 1792v-1920h-2044v1920h388v128h120v-128h132v128h124v-128h520v128h124v-128h132v128h124v-128h380zM1536 1536h128v128h-128v-128zM1280 1536h128 v128h-128v-128zM640 1536h128v128h-128v-128zM384 1536h128v128h-128v-128zM1920 1280h-1792v-1280h1792v1280z" />
<glyph unicode="&#xe051;" horiz-adv-x="2048" d="M896 936h384v-128h-384v128zM2048 1056l-548 -612h548v-148h-768v148l548 612h-548v144h768v-144zM592 1496l292 -1200h-220l-68 320h-304l-68 -320h-220l292 1200h296zM560 764l-116 512l-120 -512h236z" />
<glyph unicode="&#xe052;" horiz-adv-x="2048" d="M0 1920h384v-512h-384v512zM0 384h512v-516h-512v516zM0 1148h768v-508h-768v508zM512 1920h256v-512h-256v512zM768 384h384v-512h-384v512zM896 1152h640v-512h-640v512zM1664 1152h384v-512h-384v512zM1280 384h640v-512h-640v512zM896 1920h384v-512h-384v512z" />
<glyph unicode="&#xe053;" horiz-adv-x="2048" d="M2016 248q56 -104 14 -176t-158 -72h-1696q-116 0 -158 72t14 176l852 1488q56 100 140 100t140 -100zM1124 180q40 44 40 102t-40 100t-100 42t-100 -42t-40 -100t40 -100t100 -42t100 40zM1120 660l8 152l24 304l12 156q0 60 -40 100t-100 40t-100 -40t-40 -100 q0 -8 44 -612q0 -36 28 -64t68 -28t68 28t28 64z" />
<glyph unicode="&#xe054;" horiz-adv-x="2048" d="M556 1052l372 -372v-680h-276v408h-188v-408h-280v680zM2040 676l-552 560l-468 -460l-464 460l-556 -556v280l556 556l464 -464l468 464l220 -228v144h208v-348l128 -124zM1488 1052l368 -372v-680h-280v408h-184v-408h-280v680z" />
<glyph unicode="&#xe055;" horiz-adv-x="2048" d="M1080 444q-180 0 -296 124t-116 316q0 204 118 326t298 122q168 0 268 -102t100 -270q0 -60 -20 -120t-56 -108t-84 -72t-108 -24q-64 0 -80 64q-64 -64 -96 -64q-72 0 -120 58t-48 166q0 48 16 104t44 96t66 68t86 28q16 0 44 -16t60 -60l8 60h100l-64 -376 q-4 -4 -4 -20t24 -16q56 0 106 70t50 162q0 136 -80 216t-212 80q-140 0 -238 -102t-98 -270t94 -264t234 -96q144 0 272 96h104q-56 -76 -152 -126t-220 -50zM1124 988q0 84 -56 84q-32 0 -52 -26t-36 -58t-22 -72t-6 -80q0 -124 72 -124q24 0 62 86t38 190zM1892 1260 v-144h72q76 0 76 -76v-284q0 -28 -22 -50t-54 -22h-72v-148h72q76 0 76 -72v-292q0 -28 -22 -50t-54 -22h-72v-220h-1672v292h-220v148h220v292h-220v144h220v284h-220v148h220v292h-220v148h220v292h1672v-220h72q32 0 54 -22t22 -50v-296q0 -28 -22 -50t-54 -22h-72z M1748 1772h-1384v-144h148v-148h-148v-292h148v-148h-148v-284h148v-144h-148v-292h148v-148h-148v-144h1384v1744z" />
<glyph unicode="&#xe056;" horiz-adv-x="2048" d="M1792 1664v-128l-768 -640v-736l-256 -288v1024l-768 640v128h1792zM2048 384v-188h-320v-324h-188v324h-324v188h324v320h188v-320h320z" />
<glyph unicode="&#xe057;" horiz-adv-x="2112" d="M1172 752l44 -112q-96 -96 -128 -320l-212 144l-580 -436l292 724l-588 448h660l216 580l220 -580h656zM2112 384v-188h-320v-324h-188v324h-324v188h324v320h188v-320h320z" />
<glyph unicode="&#xe058;" horiz-adv-x="1856" d="M1856 1088v-320h-768v-768h-324v768h-760v320h760v768h324v-768h768z" />
<glyph unicode="&#xe059;" horiz-adv-x="2048" d="M0 1408h384v-128h-384v128zM0 1152h384v-128h-384v128zM516 1112l72 76l148 -148l292 364l72 -72l-364 -440zM1280 1408h768v-128h-768v128zM1280 1152h768v-128h-768v128zM0 640h384v-128h-384v128zM0 384h384v-128h-384v128zM512 352l72 76l148 -148l292 364l72 -72 l-364 -440zM1280 640h768v-128h-768v128zM1280 384h768v-128h-768v128z" />
<glyph unicode="&#xe05a;" horiz-adv-x="1920" d="M1536 476l168 120v-596h-1704v1664h616l-192 -168h-256v-1324h1368v304zM476 696q-12 -16 -30 -12t-18 24q44 216 110 362t172 256t268 160t390 50v340l680 -596l-680 -596v340q-136 0 -234 -8t-224 -40t-236 -102t-198 -178z" />
<glyph unicode="&#xe05b;" horiz-adv-x="1796" d="M0 772l192 192l572 -456l828 1412l200 -196l-964 -1852l-828 900v0z" />
<glyph unicode="&#xe05c;" horiz-adv-x="596" d="M160 1792h300v-300h-300v300zM12 896h148v-596h-148v-300h448v1196h-448v-300z" />
<glyph unicode="&#xe05d;" horiz-adv-x="2048" d="M804 792q120 0 206 -86t86 -206v-500h-1096v500q0 120 86 206t206 86l148 8q-128 36 -210 142t-82 242q0 84 32 158t86 128t126 86t156 32t158 -32t128 -86t86 -128t32 -158q0 -136 -82 -242t-210 -142zM1828 864q92 0 156 -64t64 -156v-572h-804v428q0 156 -100 280 q60 76 180 84l140 12q-100 32 -160 118t-60 190q0 136 96 234t232 98t232 -98t96 -234q0 -104 -60 -190t-160 -118z" />
<glyph unicode="&#xe05e;" horiz-adv-x="2048" d="M420 376l-128 124l64 64l64 -60l188 188l64 -64zM420 808l-128 128l64 64l64 -60l188 188l64 -64zM2048 1464v-1464h-2048v1464h2048zM1900 1316h-1752v-1168h1752v1168zM876 292h-72v880h952v-880h-880zM1244 368v144h-148v-144h148zM1464 732h-148v-148h148v148z M1536 584h144v148h-144v-148zM1464 804v148h-148v-148h148zM1096 952v-148h148v148h-148zM1096 732v-148h148v148h-148zM1464 368v144h-148v-144h148zM1680 368v144h-144v-144h144zM1680 952h-144v-148h144v148zM876 804h148v148h-148v-148zM876 584h148v148h-148v-148z M876 368h148v144h-148v-144z" />
<glyph unicode="&#xe05f;" horiz-adv-x="1920" d="M384 1072q-76 0 -144 28t-118 78t-80 116t-30 146q0 76 30 144t80 120t118 80t144 28q20 0 36 -2t36 -6q160 156 376 156q152 0 280 -82t192 -214q8 4 44 4q132 0 216 -88t84 -216q0 -124 -84 -208t-216 -84h-964zM1920 324v-148h-1188q-60 0 -110 28t-86 72t-58 100 t-22 112q0 60 24 110t66 90t94 62t108 22q124 0 214 -84t90 -212q0 -76 -40 -152h908zM864 372q48 40 48 96q0 60 -52 108t-112 48q-52 0 -96 -42t-44 -94q0 -64 46 -116t110 -52q52 0 100 52zM1536 0h128v-128h-128v128zM1280 0h128v-128h-128v128zM1024 0h128v-128h-128 v128zM768 0h128v-128h-128v128zM512 0h128v-128h-128v128zM256 0h128v-128h-128v128zM0 0h128v-128h-128v128zM1792 0h128v-128h-128v128z" />
<glyph unicode="&#xe060;" horiz-adv-x="1792" d="M848 132q-48 -20 -108 -24v-204h-192v204q-220 20 -364 132t-180 340l340 32q12 -92 74 -156t130 -88v456q-268 68 -380 188t-112 300q0 184 132 302t360 138v156h192v-156q404 -36 472 -380l-320 -36q-28 124 -152 180v-436q152 -36 254 -82t162 -102t86 -126t26 -158 q0 -152 -80 -264l-228 240q0 56 -56 114t-164 78v-524zM548 1516q-172 -64 -172 -196q0 -48 40 -100t132 -80v376zM1916 628l-676 -748l-368 396l116 112l252 -268l556 620z" />
<glyph unicode="&#xe061;" horiz-adv-x="2000" d="M644 956q0 12 -4 16l140 20l24 -36h-160zM700 1156q-28 20 -46 52t-18 80q0 144 196 188l-4 44l76 8l4 -40q88 0 146 -40t70 -104l-128 -24q-12 24 -32 42t-44 22l16 -176q136 -20 186 -64t58 -112v-20q0 -32 -8 -56h-136q12 24 12 48q-8 32 -28 50t-76 30l12 -128h-80 l-16 140q-56 8 -96 20t-64 40zM784 1340q-8 -16 -8 -48q0 -40 80 -72l-16 160q-40 -20 -56 -40zM1960 1004q32 -24 32 -56l-224 -948h-1636l-124 1184h72l-44 256l368 64l-12 116l912 84l8 -96l476 -56l-28 -452h-76l16 380l-376 40l52 -564h-84l-56 632l-752 -72l52 -560 h-80l-44 456l-276 -48l108 -596l-36 -152l-44 184q-20 72 -36 140t-24 92l12 -124q4 -28 6 -60t10 -72l16 -148q8 -92 18 -192t26 -212l152 656h1116v-4v26t6 46t20 44t38 20h396q8 0 40 -8zM1800 736h-1344l-152 -596h1348z" />
<glyph unicode="&#xe062;" horiz-adv-x="2080" d="M2040 1020v-1020h-120v248h-1792v-248h-124v1280h124v-904h1792v644h120zM452 568q-72 0 -118 50t-46 114q0 72 46 118t118 46q68 0 112 -46t44 -118q0 -64 -44 -114t-112 -50zM1496 784q60 0 112 -12t96 -48t66 -88t18 -120h-1128l22 28t36 66t22 76t8 98h748z" />
<glyph unicode="&#xe063;" horiz-adv-x="2004" d="M1724 1676q268 -220 268 -596q0 -136 -46 -264t-122 -226t-176 -158t-212 -60q-116 0 -178 68t-62 140v16q4 8 4 28q-132 -252 -352 -252q-144 0 -248 112t-104 316q0 108 40 222t112 208t168 152t208 58q108 0 178 -60t90 -152l48 168l204 -108l-144 -488l-12 -68 q-4 -16 -8 -30t-4 -22q0 -44 28 -76t76 -32q56 0 114 38t104 108t76 168t30 214q0 140 -52 252t-146 190t-222 120t-284 42q-200 0 -364 -66t-284 -180t-186 -270t-66 -332t64 -320t178 -248t270 -162t336 -58q148 0 268 36t252 92l180 -92q-168 -104 -344 -162t-368 -58 q-236 0 -424 74t-324 206t-208 310t-72 390q0 216 82 404t226 326t340 216t424 78q396 0 644 -212zM1144 772q40 104 62 186t22 142q0 64 -40 112t-108 48q-64 0 -120 -48t-98 -120t-68 -156t-26 -160q0 -96 42 -154t114 -58q132 0 220 208z" />
<glyph unicode="&#xe064;" horiz-adv-x="2116" d="M1440 1044q0 132 92 224t220 92t220 -92t92 -224q0 -120 -92 -210t-220 -90t-220 90t-92 210zM1288 744q24 0 48 -12q-48 -68 -48 -148v-332h-432v332q0 80 -44 148q8 8 20 10t20 6h152q-68 28 -116 76t-48 148t66 166t166 66q96 0 164 -66t68 -166t-50 -146t-114 -82 h148zM1964 744q68 0 110 -48t42 -112v-472h-732v472q0 64 44 112t108 48q0 -60 38 -96t102 -56v-164h148v164q140 32 140 152zM600 744q64 0 110 -48t46 -112v-584h-752v584q0 64 42 112t110 48v-160l144 160q-100 20 -168 110t-68 190q0 132 94 224t222 92t216 -92t88 -224 q0 -100 -64 -184t-168 -116l148 -160v160zM380 584l72 80h-152l80 -80l-112 -380l112 -112l100 112z" />
<glyph unicode="&#xe065;" d="M1444 716l312 -840l-732 500l-724 -500l288 836l-584 488h744l276 752l256 -752h732z" />
<glyph unicode="&#xe066;" horiz-adv-x="1160" d="M0 -4l608 960l-608 964h576l580 -964l-580 -960h-576z" />
<glyph unicode="&#xe067;" horiz-adv-x="1164" d="M584 0l-580 960l580 960h572l-604 -960l604 -960h-572z" />
<glyph unicode="&#xe068;" d="M2020 1916q8 -76 12 -150t4 -150q0 -272 -64 -544t-198 -488t-340 -350t-494 -134q-140 0 -286 46t-274 150q-80 -80 -134 -166t-106 -202q-8 -24 -24 -34t-36 -10q-28 0 -54 24t-26 80q0 52 30 112t72 118t88 110t74 88l32 28q104 124 228 184t256 90t262 50t250 70 t218 148t166 282q-116 -152 -234 -222t-234 -98t-234 -38t-234 -36t-232 -92t-232 -206l-44 -48l-4 40q-4 20 -4 36v36q0 160 68 306t192 260t296 186t380 80q232 8 374 54t232 108t144 138t110 144z" />
<glyph unicode="&#xe069;" horiz-adv-x="1856" d="M1856 1088v-320h-1852v320h1852z" />
<glyph unicode="&#xe06a;" horiz-adv-x="1240" d="M1172 1768h-1168v148h1168v-148zM1172 -128h-1168v144h1168v-144zM592 748l140 -184v-400h-288v400zM300 164h-148v364q0 116 54 212t142 152q-88 60 -142 156t-54 212v360h148v-360q0 -104 62 -182t154 -102v-164q-92 -24 -154 -102t-62 -182v-364zM1024 1260 q0 -116 -50 -212t-142 -156q92 -56 142 -152t50 -212v-364h-140v364q0 104 -64 182t-160 102v164q96 24 160 102t64 182v360h140v-360z" />
<glyph unicode="&#xe06b;" horiz-adv-x="1952" d="M1892 360q28 -40 28 -88v-136q0 -56 -38 -96t-98 -40h-1648q-56 0 -96 40t-40 96v136q0 44 32 88l608 780v652h-128v128h256v-828l-640 -820v-144h1664v144l-640 820v828h256v-128h-128v-652zM684 708h608l320 -384v-68h-1296v68l324 384h44zM1192 664q-36 -4 -64 -32 t-28 -64q0 -40 28 -70t68 -30t70 30t30 70q0 36 -32 64t-72 32zM984 484q-36 0 -66 -30t-30 -66q0 -40 34 -66t74 -34q36 8 62 34t26 66q0 36 -28 66t-72 30zM728 612q-40 0 -70 -28t-30 -68t30 -68t70 -28t68 28t28 68t-28 68t-68 28z" />
<glyph unicode="&#xe06c;" d="M1028 872h-732v152h732v-152zM880 584h-584v144h584v-144zM1168 292h-872v148h872v-148zM588 1600h1456v-1600h-2040v1892h584v-292zM1900 1168h-1748v-1020h1748v1020zM296 1456v-148h872v148h-872zM1316 1752h-584v140h584v-140zM2044 1892v-140h-584v140h584z" />
<glyph unicode="&#xe06d;" d="M1304 380h-232l324 340l-324 344h232l324 -344zM896 380h-228l324 340l-324 344h228l324 -344zM260 380l324 340l-324 344h228l324 -344l-324 -340h-228zM1752 952q36 8 72 18t68 22v-992h-1888v1432h1032q0 -20 -2 -38t2 -34q4 -32 12 -72h-896v-1144h1600v808z M2040 1536q0 -88 -32 -164t-90 -134t-132 -90t-164 -32t-168 32t-136 90t-90 134t-32 164q0 96 32 172t90 132t136 88t168 32t164 -32t132 -88t90 -132t32 -172zM1616 1220q68 0 124 26t100 70t70 102t26 118q0 68 -26 126t-70 102t-100 68t-124 24q-60 0 -118 -24t-102 -68 t-70 -102t-26 -126q0 -60 26 -118t70 -102t102 -70t118 -26zM1620 1556h212v-104h-316v264h104v-160z" />
<glyph unicode="&#xe06e;" horiz-adv-x="1984" d="M1972 24l-148 -148l-356 356q-100 -64 -224 -64q-92 0 -172 34t-140 94t-94 140t-34 172q0 88 34 168t94 140t140 94t172 34q88 0 168 -36t140 -96t94 -138t34 -166q0 -128 -64 -228zM1364 340q44 16 76 48t54 70t32 78t10 72q0 112 -84 202t-208 90q-120 0 -208 -88 t-88 -204q0 -124 88 -210t208 -86q68 0 120 28zM712 312v-144h-708v1160l584 592h728v-736h-148v588h-508v-508h-512v-952h564z" />
<glyph unicode="&#xe06f;" d="M1748 1476q0 -64 -42 -106t-98 -42q-64 0 -106 42t-42 106q0 56 42 98t106 42q56 0 98 -42t42 -98zM1312 744l-216 292l216 292l396 -584h-396zM296 600l508 728l508 -728h-1016zM148 1476h-144v152q0 128 86 210t206 82h288v-144h-288q-60 0 -104 -42t-44 -106v-152z M2020 1744q20 -60 20 -116v-152h-144v152q0 64 -44 106t-104 42h-288v144h288q100 0 170 -48t102 -128zM1896 748h144v-148q0 -136 -88 -214t-204 -78h-288v144h288q60 0 104 42t44 106v148zM296 308q-132 0 -212 88t-80 204v148h144v-148q0 -64 44 -106t104 -42h288v-144 h-288zM876 152l144 -272h-292zM788 152l-68 -148h-424v148h492zM948 152h800v-148h-728z" />
<glyph unicode="&#xe070;" d="M1992 864h-212l-784 776l-776 -776h-216l996 992zM1716 1280l-216 220v284h216v-504zM1000 1500l716 -712v-788h-216v640h-356v-640h-860v788zM928 640h-428v-284h428v284z" />
<glyph unicode="&#xe071;" horiz-adv-x="2080" d="M4 1920h508v-512h-508v512zM768 1920h512v-512h-512v512zM2048 1920v-512h-512v512h512zM4 1152h508v-512h-508v512zM768 1152h512v-512h-512v512zM1536 1152h512v-512h-512v512zM4 384h508v-512h-508v512zM768 384h512v-512h-512v512zM1536 384h512v-512h-512v512z" />
<glyph unicode="&#xe072;" horiz-adv-x="2128" d="M84 1312q60 140 160 260t226 206t276 134t314 48q220 0 412 -84t336 -230t228 -338t84 -408q0 -220 -84 -414t-230 -338t-338 -226t-408 -82q-220 0 -414 84t-338 230t-226 338t-82 408q0 220 84 412zM704 64q168 -72 344 -72q188 0 356 70t294 192t198 286t72 352 q0 184 -70 352t-192 294t-286 200t-352 74q-184 0 -350 -70t-292 -192t-200 -286t-74 -356q0 -136 40 -266t112 -242t174 -200t226 -136zM1596 364l-324 324q92 92 92 212q0 124 -90 214t-214 90t-214 -90t-90 -214h-452q0 164 64 302t168 240t242 158t286 56q156 0 292 -62 t238 -164t162 -240t60 -286q0 -152 -58 -294t-162 -246z" />
<glyph unicode="&#xe073;" d="M1056 632q-156 36 -226 114t-70 170q80 -48 196 -102t264 -54h24q92 0 144 16q-24 -68 -80 -110t-156 -42q-24 0 -48 2t-48 6zM620 944q24 -136 60 -272t68 -244q-108 -12 -196 -36q-20 116 -40 258t-36 278l80 84zM1384 512q28 104 60 262t52 298l112 -168 q-12 -108 -30 -216t-26 -176h-168zM8 1164l388 272l-388 40l388 76l-76 152l188 -124l276 204l-152 -240l388 84l-312 -192l316 -196l-344 60l104 -292l-232 232l-308 -312l184 372zM1172 1396l268 76q0 8 -4 12l-188 144l236 -44v200l156 -160l236 80l-80 -176l232 -52 l-252 -52l264 -264l-348 124l20 -276l-156 240l-224 -84l116 172zM1536 408q96 -8 158 -28t102 -54t64 -86t44 -124l48 -116h-1864q40 88 168 164t302 130t370 84t372 30h48h188z" />
<glyph unicode="&#xe074;" d="M552 1012l68 -72q24 -128 58 -264t70 -248l-196 -36l-80 540zM1372 484q36 132 70 290t54 298l108 -168l-24 -216l-28 -208q-40 4 -84 4h-96zM8 1164l388 272l-384 36l384 80l-72 152l188 -124l272 204l-156 -236l392 80l-316 -192l316 -196l-344 60l108 -292l-232 232 l-308 -308l184 368zM1176 1396q16 4 60 20l88 24l76 24l36 16l-184 148l232 -44v200l156 -160l232 80l-76 -176l232 -56l-252 -52l264 -256l-352 112l28 -264l-160 236l-224 -84l112 176zM1536 380q116 -8 182 -36t104 -76t64 -114t66 -154h-1868q44 100 184 172t324 118 t386 70t370 28q56 0 102 -2t86 -6zM1164 1052v-192h188v-156h-188v-184h-156v184h-192v156h192v192h156z" />
<glyph unicode="&#xe075;" horiz-adv-x="1840" d="M648 876l-644 -324v172l616 616zM1764 724v-172l-640 324l40 460zM1068 1576q0 -24 -10 -146t-20 -302t-22 -400t-24 -448l156 -240v-168l-252 168l-260 -168v168l156 240l-36 640q-8 120 -14 236t-14 208t-10 150t-2 62q0 52 12 112t36 112t60 86t72 34q32 0 66 -34 t56 -86t36 -112t14 -112z" />
<glyph unicode="&#xe076;" horiz-adv-x="1796" d="M1792 1664v-128l-768 -640v-736l-256 -288v1024l-768 640v128h1792z" />
<glyph unicode="&#xe077;" d="M2036 -128h-872v1016h872v-1016zM1892 16v728h-584v-728h584zM1748 456h-296v144h296v-144zM1748 160h-296v144h296v-144zM288 164l296 724l-584 440h656l216 580l220 -580h656l-388 -292h-344v-544l-144 112z" />
<glyph unicode="&#xe078;" d="M512 676h1524v-676h-168v504h-168v-504h-1696v676h172v676h336v-676zM1356 256h172v248h-172v-248zM1024 256h168v248h-168v-248zM680 256h172v248h-172v-248zM2036 932v-84h-1012v336l504 -252v252zM512 1524h-336v164h336v-164z" />
<glyph unicode="&#xe079;" horiz-adv-x="2128" d="M1440 748q-36 0 -54 -24t-18 -52q0 -32 18 -54t54 -22q40 0 58 22t18 54q0 28 -18 52t-58 24zM1440 556q40 0 40 -32v-156q0 -40 -40 -40q-36 0 -36 40v156q0 32 36 32zM1692 468q12 -12 12 -28q0 -32 -36 -32q4 0 -28 8l-100 108q-12 12 -12 28q0 8 10 22t26 14 q12 0 24 -12zM1296 576q8 8 24 8q40 0 40 -32q0 -16 -12 -28l-100 -108l-32 -8q-28 0 -34 14t-6 22q0 12 12 24zM1064 1960q216 0 410 -84t338 -228t228 -338t84 -410q0 -220 -84 -412t-228 -336t-338 -228t-410 -84q-220 0 -414 84t-338 228t-228 336t-84 412q0 216 84 410 t228 338t338 228t414 84zM1700 260q128 112 200 290t72 350q0 168 -66 330t-186 290t-288 208t-368 80q-128 0 -244 -34t-220 -90q4 -8 4 -28v-908q0 -8 6 -34t22 -52t48 -46t80 -20t78 18t46 42t22 50t6 42v224q0 16 8 66t38 102t92 94t166 42q84 0 142 -34t94 -82t50 -100 t14 -88v-148q0 -40 -24 -58t-52 -18q-32 0 -54 18t-22 58v148q0 12 -6 36t-20 52t-44 48t-78 20q-56 0 -88 -22t-48 -50t-18 -54t-2 -30v-236q0 -32 -14 -82t-48 -98t-92 -82t-146 -34q-180 0 -268 160q-28 48 -30 94t-6 54v832q-4 -12 -16 -24l-16 -16q-128 -116 -198 -288 t-70 -352q0 -188 70 -352t194 -288t288 -196t356 -72q172 0 346 68t290 200z" />
<glyph unicode="&#xe07a;" horiz-adv-x="2044" d="M2044 1916v-2040h-2040v2040h2040zM1896 1768h-1748v-1748h1748v1748zM1244 172h-944v212q0 92 34 172t92 138t136 92t170 34v-144l144 144v24q-152 52 -256 184t-104 308q0 80 24 154t68 130h836q44 -56 68 -130t24 -154q0 -180 -104 -312t-264 -180v-24l148 -144v144 q88 0 168 -34t138 -92t92 -138t34 -172v-212h-140v140h-364v-140z" />
<glyph unicode="&#xe07b;" horiz-adv-x="2044" d="M852 760q140 0 240 -100t100 -240v-420h-1188v420q0 144 102 242t238 98h172q-148 32 -244 148t-96 272q0 84 32 162t90 134t134 90t164 34t166 -34t136 -90t92 -134t34 -162q0 -156 -98 -272t-242 -148h168zM2036 1476l-524 -632l-328 332l124 124l200 -200l400 504z " />
<glyph unicode="&#xe07c;" horiz-adv-x="2052" d="M1816 1280h-1592l804 652zM2048 1280v-1280h-2044v1288l1024 -756z" />
<glyph unicode="&#xe07d;" d="M2028 1464q-20 -144 -144 -330t-340 -366l-96 -80l-92 80q-216 188 -346 366t-138 330v80q8 160 110 256t234 96q56 0 126 -32t106 -84q56 52 108 84t124 32q148 0 242 -100t106 -252v-80zM1884 1532q-12 88 -60 148t-104 68q-72 0 -122 -42t-84 -94t-50 -100t-16 -60 q-16 48 -36 100t-46 96t-64 72t-86 28q-60 0 -130 -50t-70 -166v-56q0 -100 112 -256t320 -340q216 184 322 340t114 256v56zM1956 144q36 0 54 -22t18 -50t-18 -50t-54 -22h-576q-32 0 -52 20l-76 92l-96 -204q-28 -40 -68 -40q-60 0 -72 56l-92 392l-204 -404 q-20 -44 -64 -44q-24 0 -48 18t-24 50l-76 976l-68 -828q0 -72 -76 -72q-44 0 -64 44l-60 132l-96 -268q-16 -52 -68 -52q-72 0 -72 72q0 20 4 24l148 432q12 48 64 52q52 0 64 -40l32 -56l124 1320q8 68 72 68t72 -68l124 -1464l172 344q16 40 64 40q24 0 46 -16t26 -40 l96 -388l60 116q12 40 60 40q20 0 52 -20l124 -140h548z" />
<glyph unicode="&#xe07e;" horiz-adv-x="1584" d="M628 352h632v-156h-632v156zM628 664h632v-156h-632v156zM628 980h632v-156h-632v156zM1568 1604v-1724h-1252v1256l472 468h780zM1416 1448h-628v-312h-312v-1096h940v1408zM1260 1764h-1100v-1568h-156v1724h1256v-156z" />
<glyph unicode="&#xe07f;" horiz-adv-x="2196" d="M632 1456l-640 -548l-116 100l680 572zM540 248q-60 60 -120 132t-108 146t-74 146t-14 136q12 84 82 166t160 146t180 100t146 28q16 0 48 -12l64 -24t56 -22t32 -10l-140 -40q-48 -12 -84 -8q-68 12 -138 -36t-130 -108q-32 -32 -66 -74t-70 -86q-8 -60 14 -128 t60 -134t90 -128t104 -114l296 -312q24 -36 64 -36q32 -8 56 8t28 40q0 20 -8 32l-224 260l72 60q60 -72 116 -128q44 -56 86 -100t54 -52q12 -16 28 -16q32 -8 60 14t32 54q4 20 -8 44l-224 260l60 56l224 -256q12 -12 20 -12q28 -8 54 8t34 48q0 32 -16 60l-300 376 l-120 -20q-112 -20 -176 -8q-64 8 -108 66t-32 138q16 80 100 118t160 50q132 20 218 62t156 82t134 66t156 14q96 -16 166 -70t112 -126t58 -156t4 -160t-54 -140t-94 -112t-102 -78t-78 -38l-56 124q96 56 168 132t88 168q12 76 -12 136t-66 104t-90 68t-84 32 q-56 8 -106 -14t-118 -58t-166 -80t-254 -80q-40 -8 -74 -18t-42 -46q-8 -44 14 -54t30 -14l52 -4l316 48v-100q36 -44 94 -100t112 -122t88 -136t22 -138t-70 -142t-142 -134t-182 -92t-186 -20q-64 12 -138 68t-138 122t-108 120t-48 58zM2360 1100l-128 -112l-556 564 l112 116z" />
<glyph unicode="&#xe080;" horiz-adv-x="1760" d="M880 1484l-368 216l368 220l364 -220zM1752 1408v-436l-364 -220v436l-364 220l364 220zM4 824l364 -216v-440l-364 220v436zM880 1336l364 -216v-440l-364 -216l-368 216v440zM732 1412l-364 -224v-436l-364 220v436l364 220zM1388 608l364 216v-436l-364 -220v440z M880 312l364 220v-436l-364 -220l-368 220v436z" />
<glyph unicode="&#xe081;" horiz-adv-x="2008" d="M2004 0h-928v332q0 112 78 188t186 76h128q-112 20 -186 112t-74 208q0 72 26 132t70 106t106 72t130 26t128 -26t106 -72t72 -106t26 -132q0 -116 -76 -208t-192 -112h136q108 0 186 -76t78 -184v-336zM784 1636h144v-648h-576v144h432v72v432zM1316 1616 q-96 96 -226 152t-270 56t-264 -56t-216 -150t-146 -220t-54 -266q0 -160 60 -288t156 -218t220 -138t252 -48h32v-140h-32q-168 0 -320 66t-264 178t-178 264t-66 324q0 168 66 318t180 264t264 180t318 66q160 0 316 -60t272 -180l20 -28q16 -20 38 -50t38 -62l28 -60 l12 -36h-160q-16 28 -32 66t-44 66z" />
<glyph unicode="&#xe082;" horiz-adv-x="2132" d="M652 1876q192 84 416 84q220 0 414 -86t338 -230t226 -336t82 -408q0 -224 -84 -416t-230 -336t-338 -226t-408 -82q-220 0 -414 82t-338 226t-228 336t-84 416q0 164 48 314t134 276t206 226t260 160zM712 60q160 -68 344 -68q188 0 354 70t292 190t198 284t72 356 q0 188 -70 354t-190 292t-286 198t-358 72q-188 0 -352 -70t-288 -194t-196 -288t-72 -356q0 -288 152 -512t400 -328zM1292 824q128 0 216 -88t88 -216v-52q-92 -116 -230 -184t-298 -68q-168 0 -304 68t-228 184v52q0 128 88 216t216 88h152q-132 28 -218 128t-86 240 q0 76 28 146t78 120t118 82t144 36h20q76 -4 144 -36t118 -82t78 -120t28 -146q0 -140 -86 -240t-218 -128h152z" />
<glyph unicode="&#xe083;" d="M1864 1408q72 0 122 -52t50 -120v-1064q0 -76 -50 -124t-122 -48h-1688q-72 0 -122 48t-50 124v1064q0 68 50 120t122 52h1688zM1864 1152q0 32 -22 58t-62 26h-1520q-36 0 -60 -26t-24 -58v-896q0 -40 24 -62t60 -22h1520q84 0 84 84v896zM1572 1052q52 0 90 -36t38 -88 q0 -56 -38 -92t-90 -36q-40 0 -68 12q-20 -12 -60 -12q-52 0 -90 36t-38 92q0 52 38 88t90 36q44 0 60 -16q28 16 68 16zM384 884q-44 0 -44 28v116q0 24 44 24h172q40 0 40 -24v-116q0 -28 -40 -28h-172zM1672 692q28 0 28 -24v-116q0 -28 -28 -28h-1304q-28 0 -28 28v116 q0 24 28 24h1304zM996 436q24 0 24 -24v-32q0 -28 -24 -28h-628q-28 0 -28 28v32q0 24 28 24h628z" />
<glyph unicode="&#xe084;" horiz-adv-x="1924" d="M1896 1048q0 -124 -46 -230t-126 -186t-184 -126t-224 -46t-228 46t-188 126t-126 186t-46 230q0 120 46 226t126 184t188 124t228 46t224 -46t184 -124t126 -184t46 -226zM1316 608q88 0 166 34t138 94t94 140t34 172q0 88 -34 168t-94 140t-138 94t-166 34 q-92 0 -172 -34t-140 -94t-96 -140t-36 -168q0 -92 36 -172t96 -140t140 -94t172 -34zM1320 1120h288v-144h-436v364h148v-220zM1320 320q72 0 144 12v-452h-1460v1600l440 440h1020v-144h-880v-436h-432v-1312h1168v292zM656 752v-220h220v-144h-220v-216h-144v216h-216 v144h216v220h144z" />
<glyph unicode="&#xe085;" d="M1920 1312v-196h52q28 0 50 -22t22 -54v-284q0 -32 -22 -54t-50 -22h-52v-164h52q28 0 50 -20t22 -52v-272q0 -32 -22 -52t-50 -20h-52v-228h-1788v408h-128v128h128v208h-128v128h128v280h-128v136h128v248h-128v128h128v384h1788v-180h52q28 0 50 -20t22 -52v-284 q0 -32 -22 -52t-50 -20h-52zM1736 1800h-1480v-264h132v-128h-132v-248h132v-136h-132v-280h132v-128h-132v-208h132v-128h-132v-276h1480v1796zM1536 1160h-896v376h896v-376z" />
<glyph unicode="&#xe086;" d="M1164 28h436v-144h-1160v144h432l152 1596zM1176 1916l-152 -292l-152 292h304zM728 608h-724v144h724v-144zM2036 752v-144h-724v144h724zM1600 896v728h-436v148h724v-148h-144v-728h-144zM296 1624h-148v148h724v-148h-432v-728h-144v728z" />
<glyph unicode="&#xe087;" horiz-adv-x="1468" d="M292 316h884v-148h-884v148zM292 608h884v-148h-884v148zM1456 1920v-2040h-1452v1604l436 436h1016zM1312 1772h-872v-292h-292v-1456h1164v1748zM580 1044h-288v288h288v292h292v-292h296v-288h-296v-296h-292v296z" />
<glyph unicode="&#xe088;" d="M1928 1700q52 -68 80 -144t28 -156q0 -88 -48 -164q-24 -40 -142 -168t-346 -344q-164 -156 -360 -156q-100 0 -208 50t-176 150q44 16 76 26t52 14l100 16q36 -36 76 -50t84 -14q112 0 216 96l412 392q36 32 48 72t16 76q0 60 -28 120t-74 106t-102 74t-116 28 q-92 0 -168 -64l-340 -348h-140q-56 0 -172 -40q8 16 40 48q536 536 616 564q88 32 160 32q92 0 190 -38t226 -178zM1052 488q48 -16 100 -16h24q32 4 66 6t70 14q-8 -16 -32 -42t-56 -66l-400 -384q-140 -120 -288 -120q-116 0 -214 46t-170 118t-112 164t-40 184 q0 148 128 276q244 240 388 362t192 142q84 40 196 40q92 0 180 -32t156 -100l-10 -10t-22 -14l-144 -104q-40 36 -86 52t-90 16q-120 0 -212 -92l-412 -396q-68 -80 -68 -152q0 -80 88 -168q88 -92 150 -114t110 -22q32 4 70 14t70 42z" />
<glyph unicode="&#xe089;" horiz-adv-x="1536" d="M1160 896v-260h376l-768 -768l-768 768h392v260h768zM392 1408v256h768v-256h-768zM392 1024v256h768v-256h-768zM392 1792v128h768v-128h-768z" />
<glyph unicode="&#xe08a;" horiz-adv-x="1772" d="M404 468q-52 0 -78 34t-26 74q0 44 26 78t78 34q56 0 84 -34t28 -78q0 -40 -28 -74t-84 -34zM1436 652q32 -32 32 -76t-34 -76t-78 -32q-36 0 -72 28t-36 72t36 82t80 38q36 0 72 -36zM440 316l-288 -436h-148l296 436h140zM1760 -120h-148l-292 436h144zM592 316h580 l100 -140h-776zM1376 20l96 -140h-1172l92 140h984zM1108 608v-140h-448v140h448zM592 760l-292 148v508q0 36 72 84v28q0 44 -4 82t-4 78q0 52 18 96t72 76t158 50t276 18t274 -18t156 -50t70 -78t16 -98q0 -40 -4 -84t-4 -100q72 -56 72 -84v-508l-296 -148h-580z M1328 1196h-296v-148h296v148zM952 1628q164 -20 296 -64v24q0 24 2 42t2 38q0 24 -10 42t-42 34t-90 26t-158 18v-160zM888 1516q-52 0 -76 -30t-24 -70t26 -68t78 -28q40 0 60 30t20 66q0 40 -20 70t-64 30zM516 1568q68 24 142 38t154 22v160q-128 -8 -212 -30t-84 -50 v-140z" />
<glyph unicode="&#xe08b;" d="M436 296q64 0 106 -46t42 -102q0 -64 -42 -106t-106 -42q-56 0 -98 42t-42 106q0 56 42 102t98 46zM1604 296q64 0 106 -46t42 -102q0 -64 -42 -106t-106 -42q-60 0 -100 42t-40 106q0 56 40 102t100 46zM2040 296q0 -64 -42 -106t-98 -42q0 124 -88 206t-208 82 t-206 -82t-86 -206h-580q0 124 -88 206t-208 82q-116 0 -204 -82t-88 -206q-60 0 -102 42t-42 106v276q0 60 42 102t102 42l84 372q12 60 62 100t114 40h688q44 0 84 -8t84 -52l272 -452l368 -72q56 0 94 -44t42 -104zM732 1084h-328q-8 0 -18 -8t-10 -16l-80 -344h436v368z M1388 716l-192 344q-4 8 -12 16t-16 8h-296v-368h516z" />
<glyph unicode="&#xe08c;" d="M876 724h-580v152q0 68 48 118t120 50v-84l80 84q-72 16 -118 72t-46 128q0 88 60 150t148 62q84 0 146 -62t62 -150q0 -72 -48 -128t-124 -72l84 -84v84q72 0 120 -50t48 -118v-152zM2036 1792v-1792h-2032v1792h2032zM1896 1644h-1744v-1500h1744v1500zM1748 1280h-724 v128h724v-128zM1748 1024h-724v128h724v-128zM1748 768h-724v128h724v-128zM1748 512h-724v128h724v-128z" />
<glyph unicode="&#xe08d;" d="M292 1596h68v-1012h-68v1012zM292 436h68v-144h-68v144zM440 436h68v-144h-68v144zM656 436h72v-144h-72v144zM804 436h68v-144h-68v144zM948 436h68v-144h-68v144zM1164 436h72v-144h-72v144zM1312 436h68v-144h-68v144zM1528 436h68v-144h-68v144zM1676 436h64v-144 h-64v144zM656 1596h72v-1012h-72v1012zM804 1596h68v-1012h-68v1012zM1164 1596h72v-1012h-72v1012zM1528 1160h68v-576h-68v576zM1676 1160h64v-576h-64v576zM440 1596h136v-1012h-136v1012zM948 1596h148v-1012h-148v1012zM1312 1160h140v-576h-140v576zM2036 1452v-1164 q0 -60 -24 -112q-24 -44 -64 -92q-44 -44 -96 -60q-48 -24 -112 -24h-1448q-64 0 -116 24q-44 20 -92 60q-20 24 -34 46t-26 46q-24 52 -24 112v1308q0 60 24 116q12 24 26 48t34 44q40 32 92 60q52 24 116 24h1300zM1884 1308h-288q-60 0 -102 42t-42 102v288h-1160 q-64 0 -102 -40t-38 -104v-1308q0 -60 38 -100t102 -40h1448q64 0 104 40t40 100v148v872z" />
<glyph unicode="&#xe08e;" d="M1892 1600q56 0 102 -46t46 -98v-1308q0 -56 -46 -102t-102 -46h-1740q-56 0 -102 46t-46 102v1452q0 56 46 100t102 44h724l148 -144h868zM1892 1308q0 56 -2 86t-18 44t-46 16t-82 2h-796l-144 144h-504q-56 0 -84 -2t-44 -16t-18 -44t-2 -82v-1160q0 -56 2 -84t16 -44 t42 -18t84 -2h1452q52 0 82 2t44 18t16 44t2 84v1012z" />
<glyph unicode="&#xe08f;" horiz-adv-x="1836" d="M460 340l-304 -456h-152l308 456h148zM1828 -116h-152l-308 456h156zM612 340h608l104 -152h-812zM1424 36l104 -152h-1216l96 152h1016zM460 900l-148 68v700q0 56 48 106t130 86t192 56t238 20q124 0 234 -20t192 -56t130 -86t48 -106v-700l-152 -68v200l-228 -76v-220 l-12 -8h-428l-16 8v220l-228 76v-200zM460 1480l460 -152l452 152v152q0 32 -22 54t-54 22h-760q-32 0 -54 -22t-22 -54v-152zM460 492q-64 0 -106 44t-42 108v156l348 -152q4 0 12 -2t20 -2h452q8 0 16 2t12 2l352 152v-156q0 -64 -44 -108t-108 -44h-912z" />
<glyph unicode="&#xe090;" horiz-adv-x="1200" d="M1216 1460q12 -60 12 -112q0 -216 -124 -370t-312 -210v-200h-348v520q100 4 182 14t138 38t86 78t30 134q0 128 -84 192t-176 64q-100 0 -180 -66t-84 -194h-348q8 132 56 246t128 194t190 126t238 46q120 0 220 -40t178 -110t128 -160t70 -190zM444 220h348v-348h-348 v348z" />
<glyph unicode="&#xe091;" horiz-adv-x="2124" d="M1812 1652q148 -156 228 -346t80 -410q0 -212 -84 -404t-228 -336t-338 -230t-414 -86q-216 0 -408 86t-336 230t-228 336t-84 404q0 220 86 414t230 338t336 228t404 84q220 0 410 -82t346 -226zM536 896q0 116 12 216t32 188h-336q-40 -80 -66 -182t-26 -222h384z M608 1396l32 84q32 84 76 158t108 138q-340 -88 -528 -380h312zM1712 1528q-92 88 -198 154t-250 98q20 -20 52 -58t72 -98t66 -120t38 -108h328q-44 76 -108 132zM1316 1512q-64 124 -130 190t-130 102q-80 -40 -138 -102t-94 -124t-54 -114t-22 -68h608zM680 1116 q-4 -48 -6 -102t-2 -118h776q0 136 -14 230t-46 174h-672q-12 -36 -20 -84t-16 -100zM1964 896q0 240 -92 404h-344q28 -88 40 -190t12 -214h384zM824 16q-24 28 -68 84t-92 156l-24 48h-264q100 -116 206 -188t242 -100zM672 796q8 -132 26 -228t50 -176h608q44 84 60 180 t32 224h-776zM1372 148q-72 -104 -96 -132q128 28 250 100t218 188h-288q-16 -48 -84 -156zM1816 392q120 200 144 404h-384q-8 -120 -26 -218t-58 -186h324zM224 536q40 -84 54 -108t26 -36h300q-28 88 -44 190t-24 214h-380q20 -148 68 -260zM1056 -8q92 64 148 134 t108 178h-524q52 -112 114 -184t138 -128h16z" />
<glyph unicode="&#xe092;" horiz-adv-x="1124" d="M948 1920q64 0 110 -46t46 -114v-1728q0 -64 -46 -110t-110 -46h-788q-64 0 -110 46t-46 110v1728q0 68 46 114t110 46h788zM472 1708q0 -28 28 -28h108q28 0 28 28v28q0 24 -28 24h-108q-28 0 -28 -24v-28zM316 1720q0 -40 40 -40t40 40t-40 40t-40 -40zM556 -44 q32 0 56 22t24 54t-24 56t-56 24q-36 0 -60 -24t-24 -56t24 -54t60 -22zM1024 1604h-940v-1416h940v1416zM264 268q-24 0 -24 24v108q0 24 24 24h108q24 0 24 -24v-108q0 -24 -24 -24h-108zM500 268q-28 0 -28 24v108q0 24 28 24h108q28 0 28 -24v-108q0 -24 -28 -24h-108z M736 268q-24 0 -24 24v108q0 24 24 24h108q24 0 24 -24v-108q0 -24 -24 -24h-108z" />
<glyph unicode="&#xe093;" horiz-adv-x="1600" d="M1488 1916q32 0 48 -12t24 -28q12 -16 12 -36v-1888q0 -8 -10 -42t-74 -34h-1400q-16 0 -52 10t-36 66v1888q0 56 36 66t52 10h1400zM824 -64q24 0 40 20t16 44q0 52 -56 52q-20 0 -38 -16t-18 -36q0 -24 18 -44t38 -20zM1416 1760h-1256v-1652h1256v1652zM592 228 q-24 0 -24 24v108q0 24 24 24h108q24 0 24 -24v-108q0 -24 -24 -24h-108zM856 232q-28 0 -28 24v108q0 24 28 24h108q28 0 28 -24v-108q0 -24 -28 -24h-108zM1124 228q-24 0 -24 24v108q0 24 24 24h112q24 0 24 -24v-108q0 -24 -24 -24h-112zM328 228q-8 0 -16 8t-8 16v108 q0 12 8 18t16 6h112q8 0 18 -6t10 -18v-108q0 -8 -10 -16t-18 -8h-112z" />
<glyph unicode="&#xe094;" horiz-adv-x="400" d="M0 224h336v-340h-336v340zM336 1920v-1352h-336v1352h336z" />
<glyph unicode="&#xe095;" horiz-adv-x="2080" d="M508 1920l508 -876h-280v-876h-444v876h-288zM2040 756l-508 -876l-504 876h288v876h440v-876h284z" />
<glyph unicode="&#xe096;" horiz-adv-x="1600" d="M1292 1432v-1548l-1288 252v1556l576 224l1008 -204v-1600l-124 28v1460l-880 184l-352 -140z" />
<glyph unicode="&#xe097;" horiz-adv-x="1676" d="M1456 1776h-732v-588h-572v-1164h432v-144h-580v1448l580 592h1020v-732h-148v588zM1676 28l-76 16v820l-492 104l-244 -100l592 -116v-872l-724 144v872l376 144l568 -116v-896z" />
<glyph unicode="&#xe098;" horiz-adv-x="2048" d="M2048 120l-124 20v1452l-884 184l-344 -140l1052 -212v-1540l-660 116q92 192 92 384q0 140 -54 262t-144 210t-208 138t-246 50q-16 0 -32 -2t-32 -2v632l576 236l1008 -212v-1576zM832 448v-192h-320v-320h-188v320h-324v192h324v320h188v-320h320z" />
<glyph unicode="&#xe099;" d="M732 320h580v-148h-580v148zM1312 464h-580v144h580v-144zM1456 608h144v-728h-1160v728h144v-580h872v580zM1896 1480q60 0 102 -40t42 -104v-436q0 -60 -42 -102t-102 -42h-296v144h-1160v-144h-288q-60 0 -104 42t-44 102v436q0 64 44 104t104 40h1744zM1892 1336 h-292v-124h292v124zM732 1624h-292v220q0 24 8 48t56 28h1036q44 -4 52 -28t8 -48v-220h-288v132h-580v-132z" />
<glyph unicode="&#xe09a;" d="M2040 1852v-1972h-452v724h-1136v-724h-152l-300 300v1672l72 68h224v-1016h1444v1016h232zM1588 1060h-1136v860h1136v-860zM612 448h816v-568h-816v568zM752 24h156v276h-156v-276z" />
<glyph unicode="&#xe09b;" horiz-adv-x="2048" d="M1748 1744q120 0 206 -86t86 -206v-1160q0 -124 -86 -208t-206 -84h-1452q-120 0 -206 84t-86 208v1160q0 120 86 206t206 86h1452zM1896 1452q0 60 -44 102t-104 42h-1452q-64 0 -104 -42t-40 -102v-1160q0 -68 44 -108t100 -40h1452q56 0 102 40t46 108v1160zM732 1308 l724 -436l-724 -436v872z" />
<glyph unicode="&#xe09c;" d="M1748 1744q120 0 206 -86t86 -202v-1164q0 -124 -86 -208t-206 -84h-1452q-120 0 -206 84t-86 208v1164q0 116 86 202t206 86h1452zM1896 1456q0 56 -42 98t-106 42h-1452q-68 0 -106 -46t-38 -94v-1164q0 -60 42 -104t102 -44h1452q56 0 102 42t46 106v1164zM724 1308 h168v-872h-168v872zM1316 1308v-872h-168v872h168z" />
<glyph unicode="&#xe09d;" horiz-adv-x="2044" d="M1020 1300q88 0 168 -34t140 -92t94 -138t34 -168q0 -92 -34 -170t-94 -138t-140 -94t-168 -34q-92 0 -170 34t-138 94t-94 138t-34 170q0 88 34 168t94 138t138 92t170 34zM1748 1744q120 0 206 -86t86 -206v-1164q0 -120 -86 -204t-206 -84h-1452q-120 0 -206 84 t-86 204v1164q0 120 86 206t206 86h1452zM1896 1452q0 60 -46 102t-102 42h-1452q-60 0 -102 -44t-42 -100v-1164q0 -56 38 -100t106 -44h1452q64 0 106 42t42 102v1164z" />
<glyph unicode="&#xe09e;" d="M856 1172q288 0 488 -84t336 -234t218 -360t138 -462q0 -32 -28 -32q-20 0 -36 16q-116 144 -252 242t-282 160t-294 88t-288 26v-428l-856 748l856 748v-428z" />
<glyph unicode="&#xe09f;" horiz-adv-x="1884" d="M2036 1592q8 -8 8 -28q0 -32 -18 -58t-50 -26q-20 0 -42 18t-34 18q-368 -404 -368 -652q0 -52 40 -108l24 -40l12 -44q0 -32 -20 -52t-52 -20t-56 24l-724 724q-20 20 -20 52q0 72 72 72q20 0 44 -12l96 -64l64 -12q148 0 392 200l240 196l-16 12q-20 20 -20 52 q0 28 20 52t52 24t52 -20zM1748 1676l-320 -256l-176 -112l-172 -60q60 -20 84 -20q68 0 164 50t160 96t192 150l20 12q44 48 100 84zM1100 824l-364 -360v292l216 216zM1168 756l148 -144v-740h-1312v1312l588 588h724l-148 -148h-504v-504h-512v-1104h1016v740z" />
<glyph unicode="&#xe0a0;" d="M2020 1532q12 -20 12 -40q0 -32 -26 -60t-58 -28t-56 22t-32 22q-44 -48 -116 -134t-140 -192t-118 -220t-50 -222q0 -40 14 -68t30 -52l24 -48l16 -48q0 -36 -24 -62t-60 -26q-12 0 -30 8t-26 20l-848 848q-24 24 -24 60q0 28 20 54t64 26q28 0 54 -16t52 -34t58 -32 t72 -14q64 0 140 30t156 82t162 114t158 130l120 104l-16 12q-24 24 -24 60q0 32 20 58t64 26q28 0 56 -20zM1688 1632l-16 -8q-64 -64 -158 -144t-200 -152t-210 -128t-192 -72q20 -8 44 -12t52 -4q80 0 172 46t190 114t194 148l184 152zM760 812l172 -172l-592 -592 l-340 -168l168 340z" />
<glyph unicode="&#xe0a1;" horiz-adv-x="2000" d="M1996 1188l-564 -484l312 -832l-728 496l-724 -496l292 828l-584 488h740l276 744l248 -744h732zM1460 244l-192 520l348 300h-452l-156 464l-172 -464h-460l364 -304l-184 -516l452 308z" />
<glyph unicode="&#xe0a2;" d="M952 332q-56 -8 -94 -28t-58 -40q-20 20 -90 50t-142 30h-372q-100 0 -146 10t-46 54v1264q0 32 22 60t58 28h540q80 0 122 -32t54 -56q20 24 60 56t124 32h556q36 0 50 -28t14 -60v-200q-40 8 -72 8h-20v204h-532q-64 0 -94 -28t-46 -52v-1068q28 16 66 40t82 24h16 q-52 -88 -52 -196v-72zM768 1604q-16 24 -40 48t-76 32h-552v-1084h508q44 0 94 -24t66 -40v1068zM1764 676q112 0 192 -80t80 -192v-404h-1008v404q0 112 74 192t194 80h108q-92 32 -174 132t-82 232q0 76 32 142t84 116t122 80t146 30t144 -30t118 -80t80 -116t30 -142 q0 -132 -70 -232t-190 -132h120z" />
<glyph unicode="&#xe0a3;" horiz-adv-x="1900" d="M1084 1580q108 48 228 48t226 -46t186 -126t126 -188t46 -228t-46 -228t-126 -186t-186 -124t-226 -46t-228 46t-186 124t-124 186t-46 228t46 228t124 188t186 124zM1140 636q80 -32 172 -32t172 34t140 94t94 138t34 170t-34 172t-94 140t-140 94t-172 34t-172 -34 t-140 -94t-94 -140t-34 -172t34 -170t94 -138t140 -96zM1316 1116h296v-148h-444v364h148v-216zM1316 308q84 0 144 16v-452h-1460v1608l436 440h1024v-148h-872v-440h-444v-1316h1172v292z" />
<glyph unicode="&#xe0a4;" horiz-adv-x="1924" d="M1024 1536v-516h680v-168h-848v684h168zM4 640h636v-128h-636v128zM1024 0q-20 0 -42 2t-42 2v168q20 0 42 -2t42 -2q176 0 332 68t272 184t182 270t66 326q0 180 -66 336t-182 272t-272 182t-336 66q-172 0 -326 -66t-270 -182t-184 -272t-68 -332h-168q0 208 80 394 t218 324t322 218t388 80q216 0 402 -80t326 -220t220 -326t80 -402q0 -204 -80 -388t-218 -322t-324 -218t-394 -80zM4 384h636v-128h-636v128zM4 128h636v-128h-636v128z" />
<glyph unicode="&#xe0a5;" horiz-adv-x="2036" d="M516 1432h1528v-204h-1528v204zM516 1024h1528v-204h-1528v204zM516 616h1528v-208h-1528v208zM2044 1944v-204h-1528v204h1528zM4 1944h200v-204h-200v204zM4 1432h200v-204h-200v204zM4 1024h200v-204h-200v204zM4 616h200v-208h-200v208zM4 204h200v-204h-200v204z M516 204h1528v-204h-1528v204z" />
<glyph unicode="&#xe0a6;" horiz-adv-x="2036" d="M1956 1120q32 0 58 -26t26 -66v-252q0 -40 -26 -66t-58 -26h-132q-20 0 -38 -20t-32 -50t-24 -60t-10 -46q0 -24 16 -40l72 -80q28 -32 28 -60q0 -36 -28 -64l-164 -164q-28 -28 -64 -28t-60 28l-72 76q-20 20 -44 20q-12 0 -42 -10t-60 -26t-52 -36t-22 -36v-128 q0 -36 -26 -62t-66 -26h-228q-40 0 -66 26t-26 62v128q0 16 -20 34t-48 34t-58 26t-50 10q-28 0 -44 -16l-84 -84q-28 -28 -68 -28t-64 28l-160 160q-28 24 -28 64q0 36 28 64l88 88q20 12 20 40q0 4 -10 34t-24 60t-34 56t-40 26h-128q-36 0 -62 26t-26 66v252q0 40 26 66 t62 26h128q16 0 34 20t34 48t26 58t10 50q0 28 -16 44l-88 84q-28 24 -28 64t28 68l160 160q28 28 64 28t68 -28l84 -88q16 -16 48 -16q16 0 44 10t56 24t50 34t22 40v128q0 32 26 58t66 26h228q40 0 66 -26t26 -58v-128q0 -20 20 -40t48 -34t58 -24t50 -10q28 0 44 16 l84 88q28 28 64 28t68 -28l160 -160q28 -32 28 -68t-28 -64l-88 -84q-20 -20 -20 -44q0 -12 10 -42t26 -60t34 -52t38 -22h132zM1028 504q148 8 262 112t114 288q0 172 -114 276t-262 104q-152 0 -270 -116t-118 -264q0 -184 118 -288t270 -112z" />
<glyph unicode="&#xe0a7;" d="M1408 1536h-1152v380h1276q104 0 180 -74t76 -178v-508h252l-440 -504l-452 504h260v380zM640 380h1148v-380h-1272q-104 0 -182 74t-78 178v520h-248l440 504l452 -504h-256z" />
<glyph unicode="&#xe0a8;" horiz-adv-x="1976" d="M120 1316q280 -4 524 -96t390 -262t216 -408t70 -526q0 -24 -4 -24h-296v120q0 900 -900 900h-120v296h120zM180 1920q404 0 726 -120t548 -346t346 -548t120 -726v-180h-300v180q0 336 -100 602t-286 452t-452 286t-602 100h-176q-4 -4 -4 0v300h180zM360 724 q76 0 142 -28t114 -78t76 -116t28 -142q0 -72 -28 -138t-76 -116t-114 -78t-142 -28q-148 0 -254 106t-106 254q0 152 106 258t254 106z" />
<glyph unicode="&#xe0a9;" horiz-adv-x="2044" d="M824 632q124 0 210 -88t86 -212v-460h-1112v460q0 124 88 212t212 88h144q-124 40 -208 146t-84 242q0 84 32 160t86 134t128 90t158 32t158 -32t130 -90t88 -134t32 -160q0 -136 -84 -242t-212 -146h148zM1936 1440q44 0 74 -28t30 -72v-416q0 -44 -30 -76t-74 -32h-600 q-44 0 -76 32t-32 76v416q0 44 32 72t76 28h32v172q0 24 14 74t48 102t94 92t156 40q104 0 166 -46t94 -102t40 -106t8 -58h-136q0 12 -6 40t-24 58t-52 52t-90 22q-60 0 -94 -22t-52 -52t-22 -58t-4 -40v-168h428zM1668 1128q68 32 68 100q0 44 -30 72t-70 28 q-44 0 -74 -28t-30 -72q0 -32 18 -56t46 -44l-64 -196h204z" />
<glyph unicode="&#xe0aa;" horiz-adv-x="1784" d="M4 1920h252v-2048h-252v2048zM1784 1924v-1088l-56 -36q-32 -20 -68 -36t-92 -32q-64 -24 -116 -32t-104 -8q-76 0 -256 72q-92 36 -160 52t-112 16q-116 0 -230 -24t-206 -92v1024l104 80q28 20 54 36t70 32q56 20 106 26t98 6q100 0 272 -68q92 -32 160 -48t112 -16 q228 0 424 136z" />
<glyph unicode="&#xe0ab;" d="M1948 1704q92 -96 92 -228v-780q0 -128 -92 -220t-220 -92h-284q-4 0 -552 -512v508h-576q-128 0 -220 94t-92 222v780q0 136 96 228t216 92h1412q132 0 220 -92zM1784 1404q0 44 -44 90t-100 46h-1236q-60 0 -102 -44t-42 -92v-632q0 -56 38 -94t106 -38h1236 q64 0 104 40t40 96v628z" />
<glyph unicode="&#xe0ac;" d="M252 236q0 -48 32 -78t80 -30h912v-256h-1048q-92 0 -158 66t-66 162v1052h248v-916zM1812 1912q92 0 160 -66t68 -162v-1076q0 -92 -68 -158t-160 -66h-1076q-100 0 -168 66t-68 158v1076q0 96 68 162t168 66h1076zM1652 1540h-752v-268h312l-440 -440l192 -192l432 436 v-312h256v776z" />
<glyph unicode="&#xe0ad;" d="M1740 904l-272 272l272 268l-180 184l-272 -268l-268 268l-188 -180l268 -268l-264 -268l184 -188l268 268l264 -264zM252 236q0 -48 32 -78t80 -30h912v-256h-1048q-92 0 -158 66t-66 162v1052h248v-916zM1824 1920q92 0 154 -66t62 -162v-1084q0 -92 -60 -158t-152 -66 h-1084q-100 0 -168 66t-68 158v1084q0 96 68 162t168 66h1080z" />
<glyph unicode="&#xe0ae;" horiz-adv-x="1840" d="M1792 1792v-1920h-1788v1920h252v128h124v-128h132v128h128v-128h512v128h124v-128h128v128h132v-128h256zM1404 1404h132v132h-132v-132zM1152 1404h128v132h-128v-132zM512 1396h128v140h-128v-140zM256 1400h124v132h-124v-132zM1668 1156h-1536v-1156h1536v1156z" />
<glyph unicode="&#xe0af;" horiz-adv-x="2080" d="M1660 1196q128 -196 128 -460q0 -176 -70 -344t-190 -296t-282 -204t-346 -76t-348 74t-286 202t-192 296t-70 356q0 184 72 346t196 282t284 188t340 68q264 0 460 -124l-160 -156q-140 60 -296 60q-140 0 -262 -52t-214 -144t-144 -214t-52 -262q0 -132 52 -260 t144 -226t214 -158t262 -60q136 0 258 60t214 158t144 226t52 260q0 168 -56 316zM896 1032q-132 0 -220 -90t-88 -222q0 -128 88 -218t220 -90q128 0 218 90t90 214v44l152 144q12 -44 20 -90t8 -94q0 -96 -36 -186t-102 -156t-154 -102t-188 -36t-190 32t-156 94t-104 148 t-38 182q0 100 34 194t96 166t152 116t198 44q44 0 84 -6t84 -30l-148 -148h-20zM2076 1632l-280 -248l-152 -16l-608 -616q12 -24 12 -52q0 -56 -46 -102t-106 -46t-104 46t-44 102q0 60 44 106t104 46h24l604 632l16 152l252 280v-284h284z" />
<glyph unicode="&#xe0b0;" horiz-adv-x="2124" d="M2048 1636v-1484h-292q0 24 -32 56t-82 62t-122 66l-292 132l-380 132v584l228 80q224 80 452 194t228 178h292zM4 880q0 124 86 208t206 84h428v-556h-136l148 -672l-216 -72l-276 748q-104 16 -172 86t-68 174z" />
<glyph unicode="&#xe0b1;" horiz-adv-x="2104" d="M1064 1960q216 0 408 -84t336 -228t228 -336t84 -412t-84 -412t-228 -336t-336 -226t-408 -82q-220 0 -414 82t-338 226t-228 336t-84 412t84 412t228 336t338 228t414 84zM1064 56q172 0 326 66t268 180t180 268t66 330t-66 330t-180 270t-268 182t-326 66 q-176 0 -332 -66t-270 -182t-180 -270t-66 -330t66 -330t180 -268t270 -180t332 -66zM1064 1540q64 0 110 -46t46 -114l-76 -560q-12 -56 -30 -74t-50 -18q-36 0 -56 14t-28 78l-80 560q0 68 48 114t116 46zM1064 584q64 0 110 -46t46 -114q0 -64 -46 -112t-110 -48 q-68 0 -116 48t-48 112q0 68 48 114t116 46z" />
<glyph unicode="&#xe0b2;" d="M1400 1280h-1016v-508h-248q-60 0 -96 34t-36 86v776q0 48 38 86t94 38h1132q56 0 94 -38t38 -86v-388zM2008 1116q36 -44 36 -92v-596q0 -56 -40 -88t-88 -32h-332l-440 -436v436h-504q-48 0 -90 34t-42 86v596q0 48 38 88t94 40h1276q48 0 92 -36z" />
<glyph unicode="&#xe0b3;" d="M1164 872h-1012v432h1012v-432zM2032 724v-508q0 -28 -20 -48t-48 -20h-76q0 116 -86 200t-202 84q-120 0 -206 -84t-86 -200h-576q0 116 -86 200t-206 84q-116 0 -202 -84t-86 -200h-76q-28 0 -48 20t-20 48v508h1300v796h400q44 0 76 -34t32 -74q0 -24 -8 -40t-20 -32z M1888 724l-232 580h-200v-580h432zM1748 148q0 -64 -42 -106t-102 -42t-102 42t-42 106q0 56 42 100t102 44t102 -44t42 -100zM440 292q64 0 104 -44t40 -100q0 -64 -40 -106t-104 -42q-60 0 -100 42t-40 106q0 56 40 100t100 44z" />
<glyph unicode="&#xe0b4;" horiz-adv-x="2044" d="M1392 776l132 180v-956h-412v636q0 112 80 224t264 156zM1752 1056q100 0 158 -44t86 -110t36 -138t8 -128v-636h-460v948l212 -200zM1532 1028q-68 0 -130 26t-108 72t-72 108t-26 130q0 72 26 134t72 108t108 72t130 26q140 0 240 -100t100 -240q0 -68 -26 -130 t-72 -108t-108 -72t-134 -26zM588 1016q184 -44 264 -156t80 -224v-632h-424v952l140 -180zM248 748l216 200v-948h-460v636q0 56 8 128t36 138t86 110t158 44zM508 1028q-140 0 -238 98t-98 238q0 72 26 134t72 108t108 72t130 26q140 0 240 -100t100 -240q0 -68 -26 -130 t-72 -108t-108 -72t-134 -26z" />
<glyph unicode="&#xe0b5;" horiz-adv-x="1316" d="M1312 628l-420 416q-112 -104 -174 -240t-62 -288q0 -200 102 -366t278 -274q-212 12 -398 90t-324 208t-218 302t-80 368q0 216 96 402t264 318l-360 356h1296v-1292z" />
<glyph unicode="&#xe0b6;" horiz-adv-x="2120" d="M1128 840q84 -36 84 -124q0 -52 -30 -84t-54 -40v248zM1020 1264v-220q-36 16 -60 44t-24 68q0 32 20 64t64 44zM648 1876q196 84 408 84q220 0 414 -80t340 -222t230 -336t84 -422q0 -216 -82 -410t-224 -338t-336 -228t-418 -84q-216 0 -408 82t-338 222t-230 332 t-84 408q0 160 46 314t130 286t204 234t264 158zM1064 -4q184 0 348 72t288 194t194 286t70 352q0 184 -70 348t-194 288t-288 194t-348 70q-188 0 -350 -70t-286 -194t-194 -288t-70 -348q0 -188 70 -352t194 -286t286 -194t350 -72zM1064 1652q148 0 286 -60t242 -162 t166 -240t62 -290t-62 -292t-166 -246t-242 -170t-286 -64q-156 0 -294 64t-240 170t-160 246t-58 292t60 290t162 240t238 162t292 60zM1292 548q64 76 64 196q0 104 -52 166t-176 106v248q68 -16 76 -96l140 16q-44 192 -216 216v88h-104v-88q-116 -12 -180 -80t-64 -172 q0 -212 244 -284v-264q-84 40 -108 144l-164 -24q20 -128 86 -190t186 -82v-116h104v120q104 20 164 96z" />
<glyph unicode="&#xe0b7;" horiz-adv-x="2120" d="M1476 -84q-96 -44 -202 -64t-210 -20q-216 0 -410 80t-338 226t-228 340t-84 422q0 220 84 412t228 336t334 230t402 86q220 0 414 -84t340 -226t230 -334t84 -412q0 -160 -46 -314t-130 -286t-204 -236t-264 -156zM216 900h424q132 0 226 92t94 224h-332l436 428 l432 -424h-328q0 -112 -40 -210t-112 -170t-168 -114t-208 -42h-396q76 -272 288 -444v128h296v-280q76 -16 140 -24v516h308v-496l116 32v888h308v-664q100 116 154 254t54 306q0 176 -66 330t-180 270t-268 180t-330 64t-330 -64t-270 -180t-182 -270t-66 -330z" />
<glyph unicode="&#xe0b8;" horiz-adv-x="1980" d="M1868 932q44 0 72 -30t28 -74v-408q0 -44 -28 -76t-72 -32h-588q-44 0 -76 32t-32 76v408q0 44 32 74t76 30h28v168q0 24 12 74t46 100t94 90t160 40q104 0 166 -44t92 -96t38 -100t8 -52h-136q0 16 -10 42t-30 52t-52 44t-76 18q-48 0 -80 -18t-52 -44t-30 -54t-10 -52 v-168h420zM1608 628q64 20 64 92q0 44 -30 72t-70 28q-44 0 -74 -28t-30 -72q0 -32 20 -56t48 -36l-68 -200h204zM1392 160h148v-288h-1536v1452l584 596h952v-384h-148v236h-732v-512h-512v-1244h1244v144z" />
<glyph unicode="&#xe0b9;" horiz-adv-x="1720" d="M384 444h952v-568h-952v568zM1148 1020q76 0 146 -30t124 -82t84 -122t30 -146h-1344q0 76 30 146t84 122t122 82t148 30h196q-168 32 -276 160t-108 304q0 100 38 186t102 150t152 102t188 38q96 0 182 -38t150 -102t102 -150t38 -186q0 -176 -108 -304t-276 -160h196z M188 444v-380q-76 0 -130 56t-54 136t54 134t130 54zM1532 444q76 0 130 -54t54 -134t-54 -136t-130 -56v380z" />
<glyph unicode="&#xe0ba;" d="M1312 164h-1020v1456h1456v-1016h-436v-440zM1604 1036h-292v-288h292v288zM1312 1476v-292h292v292h-292zM728 604h-292v-296h292v296zM728 1036h-292v-288h292v288zM728 1476h-292v-292h292v292zM1164 604h-288v-296h288v296zM1164 1036h-288v-288h288v288zM1164 1476 h-288v-292h288v292zM2040 1916v-1460l-584 -584h-1456v2044h2040zM1896 1768h-1752v-1752h1312v440h440v1312z" />
<glyph unicode="&#xe0bb;" horiz-adv-x="2064" d="M2056 1580v-1708h-1712v1708h1712zM856 380h-340v-340h340v340zM856 896h-340v-344h340v344zM856 1408h-340v-340h340v340zM1372 380h-344v-340h344v340zM1372 896h-344v-344h344v344zM1372 1408h-344v-340h344v340zM1884 380h-340v-340h340v340zM1884 896h-340v-344h340 v344zM1884 1408h-340v-340h340v340zM1884 1752h-340v168h340v-168zM4 380h172v-340h-172v340zM1372 1752h-344v168h344v-168zM856 1752h-340v168h340v-168zM4 896h172v-344h-172v344zM4 1408h172v-340h-172v340z" />
<glyph unicode="&#xe0bc;" d="M420 1344h1196v-1472h-1196v1472zM592 44h856v1132h-856v-1132zM2036 1708v-1500h-172v1328h-744v172h916zM916 1708h-740v-1320h-172v1488h912v-168z" />
<glyph unicode="&#xe0bd;" horiz-adv-x="2048" d="M1600 528h156v-368h-672v-164h400v-124h-1208v124h400v164h-664v1472h536v-156h-384v-1160h1436v212zM1972 1916q28 0 46 -20t18 -52v-1036q0 -40 -34 -50t-122 -10h-300q-132 0 -204 -60q-20 16 -80 38t-112 22h-308q-88 0 -122 10t-34 50v1036q0 32 18 52t46 20h476 q36 0 64 -18t40 -32t16 -10q44 60 144 60h448zM1340 1740q-28 84 -100 68h-424v-848h392q32 0 74 -20t58 -36v836zM1944 1808h-428q-60 16 -100 -64v-840q68 56 136 56h392v848z" />
<glyph unicode="&#xe0be;" horiz-adv-x="2048" d="M1520 776h-996v148q0 120 84 204t200 84h144q-124 24 -206 124t-82 224q0 148 106 254t254 106t254 -106t106 -254q0 -124 -82 -224t-206 -124h148q116 0 196 -84t80 -204v-148zM1880 160q60 0 102 -42t42 -102v-144h-2000v144q0 56 42 100t102 44h140q-60 20 -100 76 t-40 124q0 88 62 150t150 62q92 0 152 -62t60 -150q0 -68 -38 -124t-98 -76h136q28 0 44 -16t26 -40t18 -48t20 -40q8 16 16 42t20 50t26 40t30 16q8 0 10 -2t6 -2h144q-64 20 -104 76t-40 124q0 88 64 150t152 62t154 -62t66 -150q0 -68 -42 -124t-106 -76h148q28 0 44 -16 t24 -40l16 -48t20 -40l24 60q20 52 36 68t48 16h140q-64 20 -102 76t-38 124q0 88 60 150t152 62q88 0 150 -62t62 -150q0 -68 -40 -124t-100 -76h140z" />
<glyph unicode="&#xe0bf;" d="M732 524q120 0 204 -84t84 -204v-364h-1016v364q0 120 86 204t206 84h148q-128 28 -210 130t-82 234q0 152 106 256t258 104q72 0 138 -28t116 -76t78 -114t28 -142q0 -132 -82 -234t-210 -130h148zM876 1620h876v-1456h-148v1308h-728v148zM2044 1916v-1468h-148v1320 h-724v148h872zM1464 1328v-1456h-288v144h140v1168h-380l-60 68l-48 40t-52 36h688z" />
<glyph unicode="&#xe0c0;" horiz-adv-x="1700" d="M1696 1920v-2048h-1692v2048h1692zM1556 1764h-1412v-1736h1412v1736zM664 556q48 -48 112 -68v352q-228 56 -322 148t-94 228q0 152 118 244t298 104v92h160v-92q168 -12 274 -90t134 -206l-276 -32q-28 100 -132 136v-328q268 -56 362 -146t94 -222q0 -152 -120 -258 t-336 -130v-160h-160v156q-192 20 -312 110t-156 258l288 24q24 -60 68 -120zM936 476q72 12 128 52t56 120q0 56 -42 92t-142 68v-332zM664 1148q40 -52 112 -64v292q-60 -8 -104 -54t-44 -90t36 -84z" />
<glyph unicode="&#xe0c1;" horiz-adv-x="2044" d="M2040 1516l-204 -212l-212 212l212 204zM1520 1412l208 -216l-836 -832l-212 204zM576 468l216 -208l-320 -108zM220 56q8 -4 32 -4q20 0 50 8t70 32q4 4 12 4q12 0 12 -12q0 -16 -24 -32t-58 -28t-66 -20t-44 -8q-52 0 -72 28t-20 56t16 56t16 48l152 324q4 8 4 24 t-16 20q-20 0 -52 -20t-66 -48t-70 -60l-60 -64q-4 -8 -16 -8q-16 0 -16 24t24 44q76 60 128 96l84 60l60 28l44 8q52 0 52 -44q0 -28 -32 -116l-140 -300q-16 -44 -16 -68t12 -28z" />
<glyph unicode="&#xe0c2;" horiz-adv-x="2116" d="M1376 812q16 -20 24 -26t28 -14v220q-108 32 -152 86t-44 142q0 84 58 140t138 64v60h72v-60q168 -20 192 -180l-120 -16q-8 44 -28 62t-44 26v-204q124 -32 168 -84t44 -140q0 -100 -60 -156t-152 -76v-96h-72v92q-92 12 -144 64t-72 160l132 12q8 -44 32 -76zM1500 772 q40 0 64 32t24 68q0 28 -18 56t-70 40v-196zM1376 1172q8 -8 20 -18t32 -18v180q-68 -36 -68 -92q0 -24 16 -52zM2044 1916v-2044h-2044v1532l512 512h1532zM1872 1744h-1276v-424h-424v-1276h1700v1700zM380 512h644v-128h-644v128zM380 768h644v-128h-644v128zM380 1024 h644v-128h-644v128z" />
<glyph unicode="&#xe0c3;" horiz-adv-x="2120" d="M2040 1916v-2044h-2036v1532l512 512h1524zM1872 1744h-1272v-424h-424v-1276h1696v1700zM1360 792q56 -76 56 -184q0 -128 -72 -216q-80 -84 -216 -108v-128h-100v128q-120 12 -200 92q-72 68 -92 208l180 20q12 -48 40 -92l36 -36l36 -24v292q-136 40 -204 116 q-60 84 -60 196t68 192q76 76 196 88v72h100v-72q112 -12 176 -76q68 -56 88 -164l-176 -24q-20 84 -88 112v-272q164 -44 232 -120zM1028 1184q-44 -12 -68 -48q-20 -40 -20 -72t20 -72q8 -16 26 -26t42 -22v240zM1216 492q28 32 28 88t-24 84t-92 48v-272q52 12 88 52z " />
<glyph unicode="&#xe0c4;" horiz-adv-x="1720" d="M388 320h-388v1600h1380v-604zM304 1464h680v152h-680v-152zM984 1164v152h-680v-152h680zM1368 988l272 -268l-700 -700l-268 264zM564 184l272 -268l-304 -44zM1908 988l-164 -160l-264 264l160 164z" />
<glyph unicode="&#xe0c5;" horiz-adv-x="1736" d="M288 1204h720v-148h-720v148zM288 912h720v-144h-720v144zM1440 1056h-288v148h288v-148zM1152 912h288v-144h-288v144zM1152 624h288v-144h-288v144zM1008 1344h-720v144h720v-144zM1724 1920v-1676l-140 112v1420h-1440v-1416l-140 -96v1656h1720zM1448 280l276 -220 v-188l-296 236l-444 -220l-136 204l-272 -200l-288 216l-284 -188v172l288 188l284 -208l304 224l152 -224z" />
<glyph unicode="&#xe0c6;" d="M1744 1232q-68 0 -106 -44t-38 -100q0 -64 38 -112t106 -48q32 0 62 16t56 38t52 38t50 16q72 0 72 -72v-540q0 -44 -32 -78t-84 -34q-124 0 -186 -2t-90 -2h-36q0 -4 8 -10t16 -14q88 -76 88 -180q0 -92 -70 -160t-162 -68q-104 0 -172 66t-68 162q0 56 22 98t62 82 q4 4 14 12t10 16h-324q-28 0 -46 20t-22 44q-20 -64 -72 -64h-240q-36 0 -36 -32q0 -20 16 -40l44 -48l44 -56l16 -68q0 -96 -58 -146t-134 -50q-72 0 -130 48t-58 148q0 40 18 70t42 54l40 48l20 40q0 32 -44 32h-360q-32 0 -52 22t-20 54v1020q0 32 20 54t52 22h364 q44 0 44 -36q0 -24 -20 -46t-40 -48t-38 -56t-18 -66q0 -76 52 -134t128 -58t130 58t54 134q0 36 -16 66t-40 54l-40 48l-16 48q0 36 32 36h240q44 0 60 -32t16 -64v24q0 28 18 50t50 22h328q0 4 -16 24l-40 48l-36 60l-16 76q0 92 70 160t166 68q84 0 158 -68t74 -160 q0 -108 -88 -180q-8 -8 -14 -12t-6 -16h308q52 0 84 -34t32 -78v-176q0 -76 -72 -76q-24 0 -48 16l-52 40l-56 40zM1588 912q-36 32 -52 80t-16 96q0 88 68 158t156 70q60 0 100 -22t84 -70q16 -16 24 -16q12 0 12 40v124q0 12 -14 20t-30 8h-316q-32 0 -56 18t-24 58 q0 24 18 50t40 52t40 54t18 60q0 68 -48 108t-104 40q-64 0 -110 -40t-46 -108q0 -32 18 -62t38 -54l36 -52l20 -48q0 -40 -22 -58t-54 -18h-304q-32 0 -32 -28v-576q0 -8 8 -8q32 0 56 18t48 38t50 38t66 18q104 0 146 -58t42 -122q0 -68 -42 -128t-146 -60q-36 0 -62 18 t-50 38t-52 38t-64 18v-220q0 -28 28 -28h304q76 0 76 -76q0 -24 -18 -50t-38 -52t-38 -54t-18 -60q0 -68 48 -108t112 -40q56 0 104 40t48 108q0 32 -18 60t-40 54t-40 50t-18 52q0 36 24 56t56 20h316q40 0 40 28v536q-8 0 -30 -18t-50 -38t-64 -38t-72 -18q-84 0 -156 64 z" />
<glyph unicode="&#xe0c7;" d="M2036 944l-508 -656h-364l508 656l-508 656h364zM1456 944l-508 -656h-364l508 656l-508 656h364zM876 944l-508 -656h-364l508 656l-508 656h364z" />
<glyph unicode="&#xe0c8;" horiz-adv-x="1380" d="M344 1240h-168v172q0 104 40 196t110 162t162 110t200 40t200 -40t162 -110t110 -162t40 -196v-172h-172v172q0 140 -100 240t-240 100q-144 0 -244 -100t-100 -240v-172zM1284 1068q36 0 62 -24t26 -60v-1024q0 -36 -26 -62t-62 -26h-1192q-36 0 -62 26t-26 62v1024 q0 36 26 60t62 24h1192zM1116 212q0 72 -52 122t-120 50h-256q108 0 182 76t74 180t-74 180t-182 76t-182 -76t-74 -180t74 -180t182 -76h-256q-72 0 -122 -50t-50 -122v-168h856v168z" />
<glyph unicode="&#xe0c9;" d="M1744 456h148v-296h-732v-160h436v-128h-1316v128h440v160h-716v1616h568v-148h-424v-1316h1596v144zM2036 1920v-1320h-1316v1320h1316zM1596 1628h296v148h-296v-148zM1892 1480h-1028v-732h1028v732zM1744 1188h-732v144h732v-144zM1596 1044h148v-148h-148v148z M1304 1044h148v-148h-148v148z" />
<glyph unicode="&#xe0ca;" horiz-adv-x="1556" d="M1080 868q96 0 180 -36t148 -98t100 -146t36 -180v-536h-1540v536q0 96 36 180t98 146t148 98t182 36v-152l152 152q-168 52 -274 192t-106 324q0 112 42 210t116 170t172 114t210 42t210 -42t170 -114t114 -170t42 -210q0 -188 -110 -328t-282 -188l156 -152v152z" />
<glyph unicode="&#xe0cb;" horiz-adv-x="2096" d="M776 252q12 -56 36 -112h-808v1644h148v148h152v-148h596v148h152v-148h148v-660q-36 -16 -78 -40t-70 -48v148h-900v-896h612zM900 1484h152v148h-152v-148zM152 1484h152v148h-152v-148zM600 440v448h-148l148 148h152v-596h-152zM1264 988q112 48 236 48t232 -48 t188 -128t128 -188t48 -232t-48 -234t-128 -190t-188 -128t-232 -48t-234 48t-190 128t-128 190t-48 234t48 232t128 188t188 128zM1284 568q16 100 102 146t178 46t168 -52l16 -16l36 140l-12 8q-84 48 -204 48q-172 0 -292 -88t-152 -232h-72l-20 -64l-8 -40h44l44 4v-60 h-60l-28 -96h104q48 -164 150 -244t286 -80q88 0 192 44v160l-24 -20q-76 -56 -176 -56q-104 0 -172 48t-96 148h368l28 96h-408v64h416l24 96h-432z" />
<glyph unicode="&#xe0cc;" d="M88 1104l1268 -764l-336 -336zM1696 684v-596l-252 340l-1440 844zM2036 1020l-256 -256l-1520 508z" />
<glyph unicode="&#xe0cd;" horiz-adv-x="2128" d="M1244 968q60 -80 60 -180q0 -116 -76 -204q-80 -88 -208 -104v-140h-92v132q-120 16 -192 88q-80 80 -96 208l180 20q4 -28 14 -50t22 -42q40 -48 72 -56v280q-136 40 -196 116q-32 36 -48 84t-16 104q0 116 68 184q68 76 192 88v72h92v-72q112 -12 172 -72 q68 -56 80 -164l-168 -24q-12 80 -84 108v-264q80 -24 136 -50t88 -62zM928 1348q-48 -16 -68 -44q-12 -20 -20 -36t-8 -36t8 -36l16 -32q24 -32 72 -48v232zM1104 676l24 44l12 40q0 44 -32 84q-28 36 -88 48v-264q52 12 84 48zM968 176v-160q-200 0 -376 76t-308 208 t-208 308t-76 376q0 204 76 382t208 310t308 208t376 76q204 0 380 -76t308 -208t208 -310t76 -382h-160q0 168 -64 316t-174 258t-258 174t-316 64t-314 -64t-256 -174t-174 -258t-64 -316t64 -314t174 -256t256 -174t314 -64zM2128 608l-604 -728l-372 364l128 148 l224 -220l484 584z" />
<glyph unicode="&#xe0ce;" d="M1304 604h148v-440h-1172v1168l296 296h876v-144h-728v-296h-296v-880h876v296zM1412 988q-16 -8 -40 -8h-32v188h32q52 0 70 -26t18 -66q0 -32 -8 -56t-40 -32zM1072 1080h-40v88h40q56 0 56 -44q0 -20 -12 -32t-44 -12zM868 1332h1024v-584h-1024v584zM1632 928h60v116 h96v52h-96v72h136v52h-196v-292zM1276 928h92q52 0 104 28t52 120t-52 118t-104 26h-92v-292zM968 928h64v104h48q28 0 70 12t42 84q0 92 -120 92h-104v-292zM4 1484v216q0 92 66 156t158 64h216v-144h-216q-32 0 -54 -22t-22 -54v-212zM1892 308h148v-216q0 -92 -66 -156 t-158 -64h-216v144h216q32 0 54 22t22 54v216zM1816 1920q92 0 158 -64t66 -156v-216h-148v216q0 32 -22 54t-54 22h-216v144h216zM152 92q0 -32 22 -54t54 -22h216v-144h-216q-92 0 -158 64t-66 156v216h148v-216z" />
<glyph unicode="&#xe0cf;" horiz-adv-x="1920" d="M1832 1116q76 0 76 -76v-292q0 -32 -22 -52t-54 -20h-292q-32 0 -52 20t-20 52v112h-220v-112q0 -48 -48 -68l180 -296h236q28 0 50 -22t22 -54v-292q0 -32 -22 -50t-50 -18h-296q-28 0 -50 18t-22 50v292q0 52 48 72l-180 296h-168l-196 -368q56 -16 56 -72v-288 q0 -32 -20 -54t-52 -22h-296q-28 0 -48 22t-20 54v288q0 32 20 52t48 20h228l200 368q-24 8 -42 26t-18 46v112h-368v-112q0 -32 -18 -52t-50 -20h-292q-32 0 -54 20t-22 52v292q0 32 22 54t54 22h292q68 0 68 -76v-108h368v108q0 28 18 48t42 28l-200 368h-228 q-28 0 -48 18t-20 50v292q0 32 20 54t48 22h296q32 0 52 -22t20 -54v-292q0 -56 -56 -68l196 -368h164l120 220q-56 12 -56 72v292q0 32 20 54t52 22h292q32 0 54 -22t22 -54v-292q0 -32 -22 -54t-54 -22h-228l-120 -216q56 -16 56 -76v-108h220v108q0 32 20 54t52 22h292z " />
<glyph unicode="&#xe0d0;" horiz-adv-x="2120" d="M1064 1960q216 0 408 -84t336 -228t228 -336t84 -408q0 -220 -84 -414t-228 -338t-336 -228t-408 -84q-220 0 -414 84t-338 228t-228 338t-84 414q0 216 84 408t228 336t338 228t414 84zM1064 72q172 0 322 66t262 178t178 264t66 324t-66 324t-178 264t-262 178t-322 66 q-176 0 -328 -66t-264 -178t-178 -264t-66 -324t66 -324t178 -264t264 -178t328 -66zM824 1472q112 48 240 48t238 -48t194 -134t132 -196t48 -238t-48 -242t-132 -198t-194 -130t-238 -46t-244 46t-200 130t-130 198t-46 242t46 238t130 196t204 134z" />
<glyph unicode="&#xe0d1;" horiz-adv-x="2044" d="M1896 584q60 0 104 -42t44 -106v-292q0 -56 -44 -100t-104 -44h-588q-56 0 -98 44t-42 100v292q0 64 42 106t98 42h220v228h-1012v-228h216q60 0 104 -42t44 -106v-292q0 -56 -44 -100t-104 -44h-584q-56 0 -100 44t-44 100v292q0 64 44 106t100 42h220v228q0 60 42 104 t106 44h436v232h-364q-60 0 -104 40t-44 104v440q0 60 44 102t104 42h876q56 0 100 -42t44 -102v-440q0 -64 -44 -104t-100 -40h-368v-232h432q64 0 106 -44t42 -104v-228h220z" />
<glyph unicode="&#xe0d2;" horiz-adv-x="2044" d="M1612 1108l-80 -368h356l-72 -372h-356l-72 -368h-372l76 368h-360l-68 -368h-372l72 368h-360l72 372h360l76 368h-360l72 372h360l80 368h368l-80 -368h360l76 368h368l-76 -368h356l-72 -372h-352zM1240 1108h-356l-80 -368h356z" />
<glyph unicode="&#xe0d3;" d="M1700 1920q48 -4 108 -20t112 -54t86 -102t34 -164v-516q0 -104 -34 -168t-86 -102t-112 -52t-108 -14h-152l-316 -728h-336v728h-560q-104 0 -168 34t-102 84t-52 108t-14 110v516q0 108 36 174t94 102t110 50t148 14h1312zM1868 1584q0 100 -56 130t-112 38h-1308 q-128 -4 -176 -60t-48 -108v-520q0 -100 54 -130t114 -38h728v-724h84l280 724h272q56 8 112 36t56 132v520zM388 1536h1276v-128h-1276v128zM388 1280h1276v-128h-1276v128z" />
<glyph unicode="&#xe0d4;" d="M1132 736q36 -36 48 -40v188q-68 16 -118 64t-50 132q0 76 48 124t120 56v52h64v-52q140 -12 164 -152l-112 -16q-8 56 -52 68v-172q104 -24 144 -70t40 -118q0 -100 -56 -146t-128 -58v-84h-64v80q-164 24 -188 192l120 16q8 -48 20 -64zM1244 692q36 8 54 36t18 52 q0 32 -14 52t-58 32v-172zM1136 1044q12 -24 44 -36v152q-60 -12 -60 -72q0 -32 16 -44zM448 1628h1320v-1756h-1756v1316zM524 1116h-368v-1100h1468v1464h-1100v-364zM2036 1920v-1760h-144v1612h-1352l128 148h1368zM828 884q64 -72 64 -156q0 -92 -64 -154t-156 -62 t-158 60t-66 156t68 158t156 62q84 0 156 -64zM376 160v240q0 44 32 78t76 34h368q48 0 78 -34t30 -78v-240h-584z" />
<glyph unicode="&#xe0d5;" horiz-adv-x="1036" d="M940 1916q40 -4 64 -28t24 -56v-936h-172q0 116 -26 168t-60 78t-60 42t-26 60l172 604q20 68 84 68zM856 820h172v-776q0 -68 -26 -120t-62 -52t-60 52t-24 120v776zM516 1276q0 -44 -28 -80t-72 -44q-16 -36 -44 -106t-28 -150h-168q0 56 -20 124t-36 100l-16 32 q-40 8 -68 44t-28 80l72 604q8 36 36 36q36 -8 36 -44v-552h40l36 560q0 36 32 36q36 0 36 -36l40 -560h36v552q0 36 32 44q32 0 40 -36l68 -560zM172 820h172v-776q0 -68 -26 -120t-62 -52q-32 0 -58 52t-26 120v776z" />
<glyph unicode="&#xe0d6;" horiz-adv-x="1648" d="M996 1324q116 -56 206 -136t146 -144q48 -52 98 -130t92 -172t68 -200t26 -210q0 -132 -40 -226t-132 -154t-248 -86t-388 -26t-388 26t-252 86t-136 154t-40 226q0 108 28 212t72 198t96 172t100 130q52 56 138 136t198 136q16 -68 64 -110t116 -42q64 0 112 46t64 114z M852 88q116 20 184 82t68 174q0 104 -68 166t-184 82v220q72 -12 84 -92q-8 28 -26 56t-62 36q76 -12 88 -92l144 20q-24 96 -76 142t-152 62v68h-84v-68q-100 -12 -164 -72t-64 -160q0 -48 18 -104t58 -76q-40 20 -58 76t-18 104q0 -68 20 -108t52 -64t72 -44l84 -36 q-4 0 -6 2t-6 2q8 0 12 -4v-240q-56 20 -74 48t-30 76l-148 -16q12 -108 78 -168t174 -72v-100h84v100zM768 620q-36 12 -56 28t-28 56q0 68 32 84t52 28v-196zM852 428q40 -8 76 -32t36 -72q0 -36 -28 -72q28 36 28 72q0 16 -8 32q8 -16 8 -32q0 -52 -34 -78t-78 -34v216z M508 1924q4 -4 4 -12q28 -56 52 -86t76 -30q48 0 106 20t112 42t98 42t64 20q32 0 46 -36t14 -136q0 -68 -18 -142t-54 -136t-86 -104t-110 -42q-24 0 -52 14t-62 74t-80 180t-110 332zM1108 1452l88 116l348 132l92 -260l-348 -124l-144 36l-20 48z" />
<glyph unicode="&#xe0d7;" horiz-adv-x="1844" d="M508 716l-120 132l64 60l56 -56l184 188l60 -64zM752 544l-124 -120l124 -124l-64 -60l-120 120l-124 -120l-60 60l120 124l-120 120l60 60l124 -120l120 120zM1512 896h-616v128h616v-128zM896 384h616v-128h-616v128zM1836 1920v-2048h-1832v1452l580 596h1252z M1676 32v1728h-1000v-516h-512v-1212h1512zM896 704h616v-128h-616v128z" />
<glyph unicode="&#xe0d8;" horiz-adv-x="1640" d="M920 408q0 -8 -2 -16t-2 -16v-16l12 12q24 32 70 68t98 36q28 0 72 -10t84 -28t68 -38t28 -36q0 -48 -44 -48q-20 0 -46 10t-56 24t-58 24t-48 10q-4 0 -24 -22t-52 -46t-70 -46t-74 -22q-20 4 -28 16l-16 12q-8 28 -10 42t-2 34q0 24 4 50t4 50l-8 -12q-44 -56 -62 -102 t-26 -82t-18 -56t-38 -20q-44 0 -44 40q0 32 20 92t52 118t72 102t84 44t54 -36t10 -64q0 -12 -2 -30t-2 -38zM1152 792l-100 104l52 56l48 -52l148 156l44 -56zM1152 1200l-100 108l52 48l48 -48l148 156l44 -52zM1636 1920v-2048h-1632v2048h1632zM1496 1780h-1356v-1780 h1356v1780zM924 1260h-620v136h620v-136zM924 848h-620v136h620v-136z" />
<glyph unicode="&#xe0d9;" horiz-adv-x="2116" d="M1524 1108q-212 136 -464 136q-184 0 -334 -64t-258 -178t-168 -272t-60 -342q0 -68 12 -136t12 -136q0 -48 -34 -84t-82 -36q-52 0 -82 38t-44 94t-16 118t-2 114q0 256 82 464t226 352t336 222t412 78q208 0 396 -72t328 -200l-84 -52l-124 -80zM2032 832 q76 -192 76 -436v-20q0 -48 -2 -114t-16 -124t-42 -98t-80 -40t-86 32t-34 80q0 72 14 140t14 136q0 256 -100 448l140 216q76 -108 116 -220zM900 500q12 12 60 44l112 80l156 104l172 116l460 300l-300 -460l-112 -172l-104 -156l-80 -116l-44 -56q-68 -68 -160 -68 t-160 66t-68 158t68 160zM1060 236q48 0 80 34t32 78q0 48 -32 80t-80 32q-44 0 -78 -32t-34 -80q0 -44 34 -78t78 -34z" />
<glyph unicode="&#xe0da;" horiz-adv-x="2048" d="M0 1536h260v-256h-260v256zM2048 1536v-256h-1408v256h1408zM0 1024h260v-256h-260v256zM640 1024h1408v-256h-1408v256zM0 512h260v-256h-260v256zM640 512h1408v-256h-1408v256z" />
<glyph unicode="&#xe0db;" horiz-adv-x="1788" d="M656 1168q-156 0 -264 110t-108 266t108 266t264 110q76 0 144 -30t120 -80t82 -120t30 -146q0 -80 -30 -148t-82 -118t-120 -80t-144 -30zM1684 -128l-256 256q-88 -56 -188 -56q-140 0 -242 102t-102 242q0 64 26 126t72 110t110 78t136 30t134 -30t110 -78t74 -110 t26 -130q0 -112 -56 -192l252 -252zM1064 240q72 -72 176 -72t178 72t74 176t-74 176t-178 72t-176 -72t-72 -176t72 -176zM776 416q0 -20 2 -36t2 -36h-772v376q0 160 46 224t158 104q96 32 208 60t204 28h64q80 0 182 -16t194 -48t164 -82t92 -118q-20 8 -40 8h-40 q-96 0 -180 -38t-148 -102t-100 -148t-36 -176z" />
<glyph unicode="&#xe0dc;" horiz-adv-x="2088" d="M372 1768q0 44 -14 94t-42 58h328q44 0 80 -48t36 -104v-780l-192 236l-196 -236v780zM1948 1920q84 0 110 -50t26 -94v-1716q0 -64 -62 -82t-198 -18q-88 0 -208 4t-276 4q-88 0 -178 -34t-122 -62q-24 28 -114 62t-178 34h-492q-128 0 -190 14t-62 78v1716q0 44 20 94 t88 50h92q28 -8 52 -50t32 -78h-124v-1500h644q56 0 114 -26t78 -46v1472q-12 24 -50 56t-106 40q-8 32 -26 74t-50 58h44q108 0 160 -36t68 -68q20 32 74 68t158 36h676zM1924 1792h-652q-84 0 -126 -36t-58 -64v-1472q20 20 78 46t114 26h644v1500z" />
<glyph unicode="&#xe0dd;" horiz-adv-x="1892" d="M4 256h100v-128h-100v128zM4 640h100v-128h-100v128zM4 1024h100v-128h-100v128zM4 1416h100v-128h-100v128zM156 1672h1480v-1800h-1484v256h136v128h-132v256h132v128h-132v256h132v128h-132v264h132v128h-132v256zM1152 1164q-80 80 -196 80t-194 -80t-78 -196 t78 -196t194 -80t196 80t80 196t-80 196zM484 104h944v248q0 108 -44 168t-112 88t-146 32t-142 4h-52q-68 0 -146 -6t-146 -32t-112 -86t-44 -168v-248zM1884 1920v-1804h-112v1692h-1288l-80 112h1480z" />
<glyph unicode="&#xe0de;" horiz-adv-x="2048" d="M772 1792h-768v128h768v-128zM772 1536h-768v128h768v-128zM772 1280h-768v128h768v-128zM772 1024h-768v128h768v-128zM980 344q0 124 84 210t212 86h148q-128 24 -210 124t-82 276q0 72 28 140t78 118t116 80t158 30q100 0 168 -30t118 -80t78 -118t28 -140 q0 -172 -86 -274t-210 -126h148q120 0 206 -86t86 -210v-472h-1068v472z" />
<glyph unicode="&#xe0df;" d="M1352 212q72 0 122 -48t50 -120q0 -68 -50 -120t-122 -52q-68 0 -120 52t-52 120q0 72 52 120t120 48zM1864 212q68 0 118 -48t50 -120q0 -68 -50 -120t-118 -52q-72 0 -122 52t-50 120q0 72 50 120t122 48zM1868 1916q68 0 118 -50t50 -118v-1192q0 -72 -50 -122 t-118 -50h-1700q-68 0 -118 50t-50 122v1192q0 68 50 118t118 50h1700zM1000 1700q-124 0 -210 -86t-86 -210q0 -128 86 -212t210 -84q120 0 208 84t88 212q0 124 -88 210t-208 86zM1524 732q0 116 -46 182t-118 100t-156 42t-160 8h-72q-68 0 -150 -6t-154 -38t-120 -96 t-48 -176v-276h1024v260z" />
<glyph unicode="&#xe0e0;" horiz-adv-x="2044" d="M504 1568q-28 0 -48 20t-20 52v208q0 32 20 52t48 20q32 0 50 -20t18 -52v-208q0 -32 -18 -52t-50 -20zM1472 1640v208q0 32 18 52t50 20t52 -20t20 -52v-208q0 -32 -20 -52t-52 -20t-50 20t-18 52zM576 364q0 32 22 52t54 20h1032q32 0 52 -20t20 -52q0 -28 -20 -48 t-52 -20h-1032q-32 0 -54 20t-22 48zM360 576q-32 0 -52 20t-20 52t20 52t52 20h752q32 0 52 -20t20 -52t-20 -52t-52 -20h-752zM932 860q-32 0 -52 20t-20 48q0 32 20 54t52 22h472q32 0 50 -22t18 -54q0 -28 -18 -48t-50 -20h-472zM2036 1704v-1836h-2028v1836h296 q-12 -32 -12 -64q0 -92 62 -152t150 -60q92 0 152 60t60 152q0 32 -12 64h636q-12 -32 -12 -64q0 -92 62 -152t150 -60t150 60t62 152q0 32 -12 64h296zM1900 1276h-1756v-1276h1756v1276z" />
<glyph unicode="&#xe0e1;" horiz-adv-x="2044" d="M2044 896l-1024 -1016l-1016 1016l1016 1020zM1020 100l800 796l-800 800l-796 -800z" />
<glyph unicode="&#xe0e2;" d="M2040 896l-1020 -1020l-1020 1020l1020 1016zM1020 96l796 800l-796 796l-800 -796zM1020 768q-24 0 -40 10t-24 58l-60 436q0 56 34 92t90 36t90 -36t34 -92l-60 -436q-8 -44 -22 -56t-42 -12zM1144 532q0 -56 -34 -92t-90 -36t-90 36t-34 92q0 48 34 86t90 38t90 -38 t34 -86z" />
<glyph unicode="&#xe0e3;" d="M1976 828l-572 -572q-56 -56 -132 -56t-132 56t-56 132t56 132l248 228h-1196q-80 0 -134 68t-54 148q0 76 54 140t134 64h1196l-248 240q-56 56 -56 132q0 68 54 126t134 58q72 0 132 -52l572 -576q56 -48 56 -132q0 -80 -56 -136z" />
</font>
</defs>
</svg>
